<svg width="180" height="180" viewBox="0 0 180 180" fill="none" xmlns="http://www.w3.org/2000/svg">
<path d="M135.823 40H87.668C87.668 45.7652 89.9582 51.2943 94.0348 55.371C98.1115 59.4476 103.641 61.7379 109.406 61.7379H118.276V70.3027C118.284 82.2972 128.006 92.019 140 92.0268V44.1774C140 41.871 138.13 40 135.823 40Z" fill="#2684FF"/>
<path d="M111.995 63.9937H63.8408C63.8483 75.9882 73.5696 85.7099 85.5646 85.7178H94.4353V94.31C94.4506 106.304 104.179 116.02 116.173 116.02V68.1719C116.173 65.8646 114.303 63.994 111.995 63.994V63.9937Z" fill="url(#paint0_linear_23_689)"/>
<path d="M88.1548 87.9741H40C40 99.9797 49.7327 109.712 61.7378 109.712H70.6363V118.276C70.6442 130.26 80.3487 139.977 92.3326 140V92.152C92.3326 89.8447 90.4621 87.9741 88.1548 87.9741Z" fill="url(#paint1_linear_23_689)"/>
<defs>
<linearGradient id="paint0_linear_23_689" x1="115.143" y1="64.0774" x2="94.783" y2="85.322" gradientUnits="userSpaceOnUse">
<stop offset="0.18" stop-color="#0052CC"/>
<stop offset="1" stop-color="#2684FF"/>
</linearGradient>
<linearGradient id="paint1_linear_23_689" x1="92.6807" y1="88.2108" x2="69.1294" y2="111.382" gradientUnits="userSpaceOnUse">
<stop offset="0.18" stop-color="#0052CC"/>
<stop offset="1" stop-color="#2684FF"/>
</linearGradient>
</defs>
</svg>
