<svg width="261" height="260" viewBox="0 0 261 260" fill="none" xmlns="http://www.w3.org/2000/svg">
<g filter="url(#filter0_d_30_1028)">
<rect x="40.7246" y="36" width="180" height="180" rx="90" fill="white"/>
<rect x="41.2246" y="36.5" width="179" height="179" rx="89.5" stroke="white"/>
</g>
<path d="M180.553 75.5942H80.5527V175.594H180.553V75.5942Z" fill="#F7DF1E"/>
<path d="M147.727 153.72C149.742 157.009 152.362 159.426 156.997 159.426C160.891 159.426 163.378 157.48 163.378 154.791C163.378 151.569 160.822 150.428 156.537 148.553L154.188 147.545C147.407 144.656 142.902 141.037 142.902 133.386C142.902 126.339 148.272 120.974 156.664 120.974C162.638 120.974 166.934 123.053 170.029 128.497L162.711 133.196C161.1 130.307 159.362 129.169 156.664 129.169C153.911 129.169 152.167 130.915 152.167 133.196C152.167 136.015 153.913 137.156 157.945 138.902L160.294 139.909C168.278 143.332 172.786 146.823 172.786 154.67C172.786 163.131 166.14 167.766 157.215 167.766C148.488 167.766 142.849 163.607 140.091 158.156L147.727 153.72ZM114.532 154.534C116.008 157.153 117.351 159.367 120.58 159.367C123.667 159.367 125.615 158.159 125.615 153.463V121.51H135.011V153.59C135.011 163.32 129.307 167.748 120.98 167.748C113.456 167.748 109.099 163.855 106.883 159.165L114.532 154.534Z" fill="black"/>
<defs>
<filter id="filter0_d_30_1028" x="0.724609" y="0" width="260" height="260" filterUnits="userSpaceOnUse" color-interpolation-filters="sRGB">
<feFlood flood-opacity="0" result="BackgroundImageFix"/>
<feColorMatrix in="SourceAlpha" type="matrix" values="0 0 0 0 0 0 0 0 0 0 0 0 0 0 0 0 0 0 127 0" result="hardAlpha"/>
<feOffset dy="4"/>
<feGaussianBlur stdDeviation="20"/>
<feComposite in2="hardAlpha" operator="out"/>
<feColorMatrix type="matrix" values="0 0 0 0 0.0367917 0 0 0 0 0.0348958 0 0 0 0 0.0484375 0 0 0 0.1 0"/>
<feBlend mode="normal" in2="BackgroundImageFix" result="effect1_dropShadow_30_1028"/>
<feBlend mode="normal" in="SourceGraphic" in2="effect1_dropShadow_30_1028" result="shape"/>
</filter>
</defs>
</svg>
