<svg width="180" height="180" viewBox="0 0 180 180" fill="none" xmlns="http://www.w3.org/2000/svg">
<path d="M132.11 117.246C126.67 117.108 122.453 117.66 118.916 119.179C117.896 119.593 116.263 119.593 116.127 120.905C116.671 121.457 116.739 122.355 117.216 123.114C118.033 124.495 119.46 126.359 120.752 127.326C122.18 128.43 123.609 129.534 125.105 130.501C127.758 132.158 130.75 133.124 133.335 134.782C134.832 135.747 136.327 136.991 137.823 138.026C138.572 138.578 139.047 139.476 140 139.821V139.614C139.523 138.993 139.387 138.095 138.912 137.405C138.232 136.714 137.551 136.093 136.871 135.403C134.899 132.711 132.451 130.363 129.798 128.43C127.622 126.911 122.86 124.84 121.977 122.285C121.977 122.285 121.908 122.217 121.841 122.148C123.337 122.01 125.105 121.457 126.534 121.043C128.846 120.421 130.954 120.56 133.335 119.938C134.423 119.662 135.511 119.317 136.599 118.972V118.351C135.375 117.108 134.491 115.451 133.199 114.277C129.73 111.239 125.921 108.271 121.977 105.785C119.868 104.405 117.147 103.507 114.903 102.334C114.087 101.919 112.727 101.712 112.251 101.022C111.026 99.5031 110.346 97.5012 109.462 95.706C107.49 91.9084 105.585 87.6974 103.885 83.6936C102.661 81.0008 101.913 78.308 100.416 75.8231C93.4111 64.0865 85.7936 56.9756 74.0957 50.0023C71.5789 48.5528 68.5864 47.9314 65.3898 47.1722C63.6901 47.1028 61.9892 46.9651 60.2891 46.8957C59.2008 46.4123 58.1124 45.1009 57.1602 44.4795C53.2842 41.9938 43.2856 36.6094 40.4291 43.7203C38.5925 48.2075 43.1499 52.6257 44.7136 54.9046C45.8707 56.4923 47.3664 58.2871 48.1826 60.0822C48.6588 61.2552 48.7944 62.4988 49.2706 63.7413C50.3593 66.7781 51.3788 70.1618 52.8076 72.9926C53.5559 74.4422 54.3717 75.9608 55.324 77.2727C55.8682 78.0318 56.8201 78.3774 57.0245 79.6199C56.0726 81.0008 56.0042 83.0721 55.4596 84.7979C53.0113 92.5993 53.964 102.265 57.4322 107.995C58.5202 109.72 61.1049 113.518 64.5736 112.068C67.6345 110.825 66.9543 106.89 67.8378 103.438C68.0426 102.609 67.9066 102.057 68.3143 101.505V101.644C69.2666 103.576 70.2185 105.441 71.1028 107.374C73.2114 110.756 76.8837 114.277 79.9442 116.625C81.5771 117.867 82.8691 120.007 84.9097 120.767V120.559H84.7733C84.3652 119.938 83.753 119.662 83.2092 119.178C81.9852 117.936 80.6245 116.417 79.6726 115.036C76.8165 111.17 74.2993 106.89 72.0551 102.471C70.9671 100.332 70.0144 97.9841 69.1306 95.8441C68.7221 95.0147 68.7221 93.7727 68.0422 93.3588C67.0219 94.8774 65.5259 96.1893 64.7777 98.0531C63.486 101.022 63.3496 104.681 62.8735 108.477C62.6014 108.547 62.737 108.477 62.601 108.616C60.4251 108.063 59.6769 105.785 58.8603 103.852C56.8197 98.9507 56.4796 91.0803 58.2485 85.4193C58.7246 83.9693 60.7652 79.4131 59.949 78.0322C59.5409 76.7203 58.1801 75.9608 57.4322 74.9255C56.5484 73.6137 55.5957 71.9573 54.9839 70.507C53.3514 66.6408 52.5352 62.3604 50.767 58.4942C49.9508 56.699 48.5231 54.8355 47.3664 53.1784C46.0744 51.3146 44.646 50.0023 43.6257 47.7933C43.2859 47.0342 42.8094 45.7913 43.3536 44.9628C43.4896 44.4104 43.7613 44.2037 44.3059 44.0656C45.1901 43.3057 47.7069 44.2723 48.5904 44.6866C51.1071 45.7215 53.2154 46.6889 55.324 48.1385C56.2759 48.829 57.2962 50.1408 58.5202 50.4861H59.9486C62.1252 50.969 64.5732 50.6241 66.6138 51.2452C70.2189 52.4185 73.4831 54.1447 76.408 56.0089C85.3179 61.7389 92.6625 69.8856 97.628 79.6199C98.4442 81.2071 98.7839 82.6579 99.5322 84.3142C100.961 87.6974 102.729 91.1493 104.157 94.4631C105.585 97.7075 106.945 101.022 108.986 103.714C110.006 105.164 114.087 105.924 115.923 106.683C117.284 107.304 119.392 107.857 120.616 108.616C122.928 110.065 125.241 111.723 127.417 113.31C128.506 114.139 131.906 115.865 132.11 117.246V117.246Z" fill="white"/>
<path d="M62.7363 57.251C61.5803 57.251 60.7645 57.3899 59.9482 57.5966V57.7347H60.0843C60.6288 58.8394 61.5803 59.5989 62.2601 60.5652C62.8047 61.6695 63.2805 62.7746 63.825 63.8794C63.8926 63.8099 63.9607 63.7413 63.9607 63.7413C64.9133 63.0504 65.3891 61.9461 65.3891 60.289C64.981 59.8061 64.9129 59.3228 64.5728 58.8394C64.1651 58.1486 63.2805 57.8037 62.7363 57.251V57.251Z" fill="white"/>
</svg>
