<svg width="261" height="261" viewBox="0 0 261 261" fill="none" xmlns="http://www.w3.org/2000/svg">
<g filter="url(#filter0_d_30_923)">
<rect x="40.9326" y="36.2969" width="180" height="180" rx="90" fill="white"/>
<rect x="41.4326" y="36.7969" width="179" height="179" rx="89.5" stroke="white"/>
</g>
<path d="M173.319 153.136C167.879 152.999 163.662 153.551 160.125 155.07C159.105 155.484 157.472 155.484 157.336 156.796C157.88 157.348 157.948 158.246 158.424 159.005C159.242 160.385 160.669 162.25 161.961 163.217C163.389 164.321 164.818 165.425 166.314 166.392C168.966 168.049 171.959 169.015 174.544 170.672C176.041 171.638 177.536 172.882 179.032 173.917C179.781 174.469 180.256 175.367 181.209 175.712V175.505C180.732 174.883 180.596 173.986 180.121 173.296C179.441 172.605 178.76 171.984 178.08 171.293C176.108 168.601 173.66 166.254 171.007 164.321C168.831 162.802 164.069 160.731 163.186 158.176C163.186 158.176 163.117 158.108 163.049 158.039C164.546 157.901 166.314 157.348 167.743 156.934C170.055 156.312 172.163 156.451 174.544 155.829C175.632 155.553 176.72 155.208 177.808 154.863V154.242C176.584 152.999 175.7 151.342 174.408 150.168C170.939 147.13 167.13 144.162 163.186 141.676C161.077 140.295 158.356 139.398 156.112 138.224C155.296 137.81 153.936 137.603 153.46 136.913C152.235 135.394 151.555 133.392 150.671 131.597C148.699 127.799 146.794 123.588 145.094 119.584C143.87 116.892 143.122 114.199 141.625 111.714C134.62 99.9774 127.003 92.8664 115.305 85.8932C112.788 84.4436 109.795 83.8222 106.599 83.0631C104.899 82.9937 103.198 82.856 101.498 82.7865C100.41 82.3032 99.3214 80.9917 98.3691 80.3703C94.4931 77.8847 84.4945 72.5003 81.6381 79.6112C79.8015 84.0984 84.3589 88.5166 85.9226 90.7955C87.0797 92.3831 88.5754 94.1779 89.3916 95.9731C89.8678 97.1461 90.0034 98.3897 90.4796 99.6321C91.5683 102.669 92.5878 106.053 94.0166 108.884C94.7648 110.333 95.5807 111.852 96.533 113.164C97.0771 113.923 98.029 114.268 98.2335 115.511C97.2816 116.892 97.2132 118.963 96.6686 120.689C94.2203 128.49 95.173 138.155 98.6412 143.885C99.7292 145.611 102.314 149.409 105.783 147.959C108.843 146.716 108.163 142.781 109.047 139.329C109.252 138.5 109.116 137.948 109.523 137.396V137.534C110.476 139.467 111.427 141.332 112.312 143.264C114.42 146.647 118.093 150.168 121.153 152.516C122.786 153.758 124.078 155.898 126.119 156.658V156.45H125.982C125.574 155.829 124.962 155.553 124.418 155.069C123.194 153.827 121.833 152.308 120.882 150.927C118.025 147.061 115.508 142.781 113.264 138.362C112.176 136.223 111.223 133.875 110.34 131.735C109.931 130.906 109.931 129.664 109.251 129.25C108.231 130.768 106.735 132.08 105.987 133.944C104.695 136.913 104.559 140.572 104.082 144.368C103.81 144.438 103.946 144.368 103.81 144.507C101.634 143.954 100.886 141.676 100.069 139.743C98.0286 134.842 97.6885 126.971 99.4575 121.31C99.9336 119.86 101.974 115.304 101.158 113.923C100.75 112.611 99.3891 111.852 98.6412 110.816C97.7573 109.505 96.8047 107.848 96.1929 106.398C94.5604 102.532 93.7441 98.2512 91.976 94.3851C91.1598 92.5899 89.7321 90.7264 88.5754 89.0693C87.2834 87.2055 85.8549 85.8932 84.8346 83.6841C84.4949 82.925 84.0184 81.6822 84.5626 80.8536C84.6986 80.3013 84.9703 80.0945 85.5148 79.9564C86.3991 79.1965 88.9159 80.1632 89.7993 80.5775C92.3161 81.6124 94.4243 82.5798 96.533 84.0294C97.4849 84.7198 98.5052 86.0317 99.7292 86.3769H101.158C103.334 86.8598 105.782 86.515 107.823 87.136C111.428 88.3094 114.692 90.0356 117.617 91.8998C126.527 97.6298 133.871 105.776 138.837 115.511C139.653 117.098 139.993 118.549 140.741 120.205C142.17 123.588 143.938 127.04 145.366 130.354C146.794 133.598 148.154 136.913 150.195 139.605C151.215 141.055 155.296 141.814 157.132 142.574C158.493 143.195 160.601 143.748 161.825 144.507C164.137 145.956 166.45 147.614 168.626 149.201C169.715 150.03 173.115 151.756 173.319 153.136V153.136Z" fill="#00546B"/>
<path d="M103.945 93.1418C102.789 93.1418 101.973 93.2807 101.157 93.4875V93.6256H101.293C101.838 94.7303 102.789 95.4898 103.469 96.456C104.014 97.5604 104.489 98.6655 105.034 99.7703C105.102 99.7008 105.17 99.6322 105.17 99.6322C106.122 98.9413 106.598 97.837 106.598 96.1799C106.19 95.6969 106.122 95.2136 105.782 94.7303C105.374 94.0394 104.489 93.6946 103.945 93.1418V93.1418Z" fill="#00546B"/>
<defs>
<filter id="filter0_d_30_923" x="0.932617" y="0.296875" width="260" height="260" filterUnits="userSpaceOnUse" color-interpolation-filters="sRGB">
<feFlood flood-opacity="0" result="BackgroundImageFix"/>
<feColorMatrix in="SourceAlpha" type="matrix" values="0 0 0 0 0 0 0 0 0 0 0 0 0 0 0 0 0 0 127 0" result="hardAlpha"/>
<feOffset dy="4"/>
<feGaussianBlur stdDeviation="20"/>
<feComposite in2="hardAlpha" operator="out"/>
<feColorMatrix type="matrix" values="0 0 0 0 0.0367917 0 0 0 0 0.0348958 0 0 0 0 0.0484375 0 0 0 0.1 0"/>
<feBlend mode="normal" in2="BackgroundImageFix" result="effect1_dropShadow_30_923"/>
<feBlend mode="normal" in="SourceGraphic" in2="effect1_dropShadow_30_923" result="shape"/>
</filter>
</defs>
</svg>
