<svg width="180" height="180" viewBox="0 0 180 180" fill="none" xmlns="http://www.w3.org/2000/svg">
<path d="M85.9055 41.0669C88.385 39.6476 91.6146 39.6412 94.092 41.0669C106.556 48.1094 119.023 55.141 131.485 62.1878C133.828 63.5081 135.396 66.1166 135.372 68.8173V111.188C135.39 114.001 133.667 116.671 131.194 117.962C118.772 124.966 106.355 131.978 93.9349 138.982C91.4041 140.429 88.1097 140.317 85.6579 138.752C81.9336 136.593 78.2029 134.444 74.4783 132.287C73.7172 131.834 72.8592 131.473 72.3218 130.735C72.7969 130.094 73.6463 130.014 74.3365 129.735C75.8911 129.24 77.3189 128.447 78.7471 127.677C79.1083 127.43 79.5492 127.525 79.8954 127.746C83.0801 129.572 86.2367 131.451 89.4321 133.259C90.1138 133.653 90.804 133.13 91.3867 132.806C103.577 125.916 115.782 119.052 127.971 112.16C128.422 111.943 128.672 111.463 128.635 110.969C128.644 96.9915 128.637 83.0118 128.64 69.0345C128.691 68.4732 128.366 67.9572 127.859 67.7274C115.479 60.7557 103.106 53.7733 90.7288 46.7999C90.5144 46.6524 90.2604 46.5733 90.0001 46.5729C89.7399 46.5726 89.4856 46.6509 89.2707 46.7977C76.8933 53.7733 64.5224 60.7622 52.1449 67.7335C51.6392 67.9636 51.2998 68.4711 51.36 69.0345C51.3621 83.0118 51.36 96.9915 51.36 110.971C51.3385 111.212 51.3915 111.454 51.5119 111.665C51.6322 111.875 51.8141 112.043 52.0331 112.147C55.3361 114.02 58.6433 115.88 61.9484 117.747C63.8104 118.749 66.0965 119.344 68.148 118.577C69.9583 117.927 71.2273 116.08 71.1927 114.158C71.2098 100.262 71.1842 86.3642 71.2056 72.4707C71.1603 71.8538 71.7455 71.3442 72.3453 71.4022C73.9323 71.3915 75.5214 71.3809 77.1085 71.4065C77.7709 71.3916 78.2268 72.0558 78.1449 72.6773C78.1385 86.6609 78.162 100.645 78.1342 114.629C78.1385 118.355 76.6074 122.411 73.1601 124.234C68.9134 126.434 63.6644 125.967 59.4689 123.858C55.8368 122.045 52.3707 119.906 48.8032 117.964C46.324 116.68 44.6098 113.999 44.6273 111.188V68.8173C44.6013 66.0606 46.2314 63.4048 48.6482 62.1038C61.0687 55.0943 73.4871 48.0795 85.9055 41.0669Z" fill="#8CC84B"/>
<path d="M96.741 70.4174C102.158 70.0687 107.957 70.2108 112.832 72.8795C116.606 74.9245 118.699 79.2165 118.765 83.4095C118.66 83.9751 118.069 84.2871 117.529 84.2483C115.957 84.2461 114.385 84.2696 112.813 84.2376C112.146 84.2632 111.759 83.6485 111.675 83.0591C111.224 81.0529 110.13 79.0659 108.241 78.0982C105.343 76.6469 101.981 76.7199 98.8206 76.7502C96.5131 76.8727 94.0318 77.0725 92.0769 78.4294C90.576 79.4573 90.1202 81.5322 90.6558 83.2033C91.1608 84.4032 92.5459 84.7903 93.6792 85.1472C100.207 86.8546 107.125 86.6847 113.529 88.9317C116.18 89.8477 118.774 91.6285 119.681 94.4043C120.868 98.1247 120.348 102.572 117.701 105.558C115.555 108.016 112.428 109.354 109.31 110.08C105.162 111.005 100.857 111.029 96.6445 110.618C92.6834 110.167 88.5613 109.126 85.5033 106.427C82.8885 104.157 81.6113 100.619 81.7381 97.2044C81.7684 96.6278 82.3425 96.2257 82.8949 96.2731C84.4776 96.2603 86.0604 96.256 87.6431 96.2752C88.2753 96.23 88.744 96.7763 88.7764 97.3722C89.0684 99.2837 89.7868 101.29 91.4536 102.423C94.6704 104.498 98.7067 104.356 102.39 104.414C105.442 104.279 108.867 104.238 111.357 102.221C112.671 101.071 113.06 99.1462 112.705 97.4904C112.321 96.0925 110.858 95.4411 109.602 95.0151C103.158 92.9765 96.1627 93.7163 89.7804 91.4109C87.1894 90.4952 84.6838 88.7639 83.6884 86.1021C82.2994 82.3347 82.9358 77.6747 85.8602 74.7888C88.7116 71.9182 92.8276 70.8127 96.741 70.4171V70.4174Z" fill="#8CC84B"/>
</svg>
