<svg width="261" height="260" viewBox="0 0 261 260" fill="none" xmlns="http://www.w3.org/2000/svg">
<g filter="url(#filter0_d_30_1015)">
<rect x="40.7236" y="36" width="180" height="180" rx="90" fill="white"/>
<rect x="41.2236" y="36.5" width="179" height="179" rx="89.5" stroke="white"/>
</g>
<path d="M126.734 77.364C129.213 75.9447 132.443 75.9383 134.92 77.364C147.384 84.4066 159.851 91.4381 172.313 98.485C174.657 99.8052 176.224 102.414 176.2 105.114V147.485C176.218 150.298 174.495 152.969 172.022 154.259C159.6 161.263 147.184 168.275 134.763 175.279C132.232 176.726 128.938 176.614 126.486 175.049C122.762 172.89 119.031 170.741 115.306 168.585C114.545 168.131 113.687 167.77 113.15 167.032C113.625 166.391 114.474 166.312 115.165 166.032C116.719 165.538 118.147 164.744 119.575 163.974C119.936 163.727 120.377 163.822 120.723 164.043C123.908 165.869 127.065 167.748 130.26 169.556C130.942 169.95 131.632 169.428 132.215 169.103C144.405 162.213 156.611 155.349 168.799 148.457C169.25 148.24 169.5 147.761 169.463 147.266C169.472 133.289 169.466 119.309 169.468 105.332C169.519 104.77 169.195 104.254 168.687 104.025C156.308 97.0529 143.934 90.0705 131.557 83.097C131.343 82.9496 131.088 82.8704 130.828 82.8701C130.568 82.8697 130.314 82.948 130.099 83.0948C117.721 90.0705 105.35 97.0593 92.9731 104.031C92.4673 104.261 92.1279 104.768 92.1881 105.332C92.1902 119.309 92.1881 133.289 92.1881 147.268C92.1666 147.509 92.2197 147.752 92.34 147.962C92.4604 148.172 92.6423 148.341 92.8612 148.444C96.1642 150.317 99.4715 152.177 102.777 154.044C104.639 155.046 106.925 155.642 108.976 154.874C110.786 154.224 112.055 152.377 112.021 150.455C112.038 136.559 112.012 122.661 112.034 108.768C111.988 108.151 112.574 107.641 113.173 107.699C114.76 107.689 116.35 107.678 117.937 107.704C118.599 107.689 119.055 108.353 118.973 108.974C118.967 122.958 118.99 136.942 118.962 150.926C118.967 154.652 117.435 158.708 113.988 160.531C109.741 162.731 104.493 162.265 100.297 160.155C96.665 158.342 93.1989 156.203 89.6313 154.261C87.1521 152.978 85.4379 150.296 85.4554 147.486V105.114C85.4294 102.358 87.0595 99.7019 89.4764 98.4009C101.897 91.3914 114.315 84.3766 126.734 77.364Z" fill="#8CC84B"/>
<path d="M137.569 106.715C142.986 106.366 148.786 106.508 153.66 109.177C157.434 111.222 159.527 115.514 159.593 119.707C159.488 120.272 158.897 120.584 158.357 120.545C156.785 120.543 155.213 120.567 153.641 120.535C152.975 120.56 152.587 119.946 152.503 119.356C152.052 117.35 150.958 115.363 149.069 114.395C146.171 112.944 142.81 113.017 139.649 113.047C137.341 113.17 134.86 113.37 132.905 114.727C131.404 115.754 130.948 117.829 131.484 119.5C131.989 120.7 133.374 121.087 134.507 121.444C141.036 123.152 147.954 122.982 154.357 125.229C157.008 126.145 159.602 127.926 160.509 130.701C161.696 134.422 161.176 138.869 158.529 141.855C156.383 144.313 153.256 145.651 150.138 146.378C145.99 147.302 141.685 147.326 137.473 146.915C133.512 146.464 129.389 145.423 126.331 142.724C123.717 140.454 122.439 136.916 122.566 133.502C122.596 132.925 123.171 132.523 123.723 132.57C125.306 132.557 126.888 132.553 128.471 132.572C129.103 132.527 129.572 133.073 129.605 133.669C129.897 135.581 130.615 137.587 132.282 138.72C135.499 140.796 139.535 140.653 143.218 140.712C146.27 140.576 149.695 140.535 152.185 138.518C153.499 137.368 153.888 135.443 153.533 133.788C153.149 132.39 151.686 131.738 150.431 131.312C143.986 129.274 136.991 130.013 130.609 127.708C128.017 126.792 125.512 125.061 124.517 122.399C123.128 118.632 123.764 113.972 126.688 111.086C129.54 108.215 133.656 107.11 137.569 106.714V106.715Z" fill="#8CC84B"/>
<defs>
<filter id="filter0_d_30_1015" x="0.723633" y="0" width="260" height="260" filterUnits="userSpaceOnUse" color-interpolation-filters="sRGB">
<feFlood flood-opacity="0" result="BackgroundImageFix"/>
<feColorMatrix in="SourceAlpha" type="matrix" values="0 0 0 0 0 0 0 0 0 0 0 0 0 0 0 0 0 0 127 0" result="hardAlpha"/>
<feOffset dy="4"/>
<feGaussianBlur stdDeviation="20"/>
<feComposite in2="hardAlpha" operator="out"/>
<feColorMatrix type="matrix" values="0 0 0 0 0.0367917 0 0 0 0 0.0348958 0 0 0 0 0.0484375 0 0 0 0.1 0"/>
<feBlend mode="normal" in2="BackgroundImageFix" result="effect1_dropShadow_30_1015"/>
<feBlend mode="normal" in="SourceGraphic" in2="effect1_dropShadow_30_1015" result="shape"/>
</filter>
</defs>
</svg>
