<svg width="261" height="261" viewBox="0 0 261 261" fill="none" xmlns="http://www.w3.org/2000/svg">
<g filter="url(#filter0_d_30_1001)">
<rect x="40.7236" y="36.2969" width="180" height="180" rx="90" fill="white"/>
<rect x="41.2236" y="36.7969" width="179" height="179" rx="89.5" stroke="white"/>
</g>
<path d="M130.468 76.1511C105.082 76.1511 106.667 87.1601 106.667 87.1601L106.695 98.5658H130.921V101.99H97.0728C97.0728 101.99 80.8281 100.148 80.8281 125.762C80.8281 151.378 95.0069 150.469 95.0069 150.469H103.469V138.583C103.469 138.583 103.013 124.404 117.421 124.404H141.449C141.449 124.404 154.948 124.622 154.948 111.357V89.4246C154.948 89.4246 156.998 76.1511 130.468 76.1511ZM117.11 83.8212C117.682 83.8207 118.249 83.9331 118.778 84.1519C119.307 84.3707 119.788 84.6917 120.193 85.0965C120.597 85.5013 120.918 85.982 121.137 86.511C121.356 87.0399 121.469 87.6069 121.468 88.1794C121.469 88.7518 121.356 89.3188 121.137 89.8478C120.918 90.3768 120.597 90.8574 120.193 91.2622C119.788 91.667 119.307 91.988 118.778 92.2068C118.249 92.4257 117.682 92.538 117.11 92.5375C116.537 92.538 115.97 92.4257 115.441 92.2068C114.912 91.988 114.432 91.667 114.027 91.2622C113.622 90.8574 113.301 90.3768 113.082 89.8478C112.864 89.3188 112.751 88.7518 112.752 88.1794C112.751 87.6069 112.864 87.0399 113.082 86.511C113.301 85.982 113.622 85.5013 114.027 85.0965C114.432 84.6917 114.912 84.3707 115.441 84.1519C115.97 83.9331 116.537 83.8207 117.11 83.8212V83.8212Z" fill="url(#paint0_linear_30_1001)"/>
<path d="M131.189 175.631C156.575 175.631 154.99 164.622 154.99 164.622L154.962 153.217H130.736V149.793H164.584C164.584 149.793 180.829 151.635 180.829 126.02C180.829 100.405 166.65 101.313 166.65 101.313H158.188V113.199C158.188 113.199 158.644 127.378 144.236 127.378H120.208C120.208 127.378 106.709 127.16 106.709 140.425V162.358C106.709 162.358 104.659 175.631 131.189 175.631H131.189ZM144.547 167.962C143.975 167.962 143.408 167.85 142.879 167.631C142.35 167.412 141.869 167.091 141.464 166.687C141.06 166.282 140.739 165.801 140.52 165.272C140.301 164.743 140.189 164.176 140.189 163.604C140.188 163.031 140.301 162.464 140.52 161.935C140.738 161.406 141.059 160.925 141.464 160.521C141.869 160.116 142.35 159.795 142.879 159.576C143.408 159.357 143.975 159.245 144.547 159.245C145.12 159.245 145.687 159.357 146.216 159.576C146.745 159.795 147.225 160.116 147.63 160.52C148.035 160.925 148.356 161.406 148.575 161.935C148.794 162.464 148.906 163.031 148.905 163.603C148.906 164.176 148.794 164.743 148.575 165.272C148.356 165.801 148.035 166.281 147.63 166.686C147.225 167.091 146.745 167.412 146.216 167.631C145.687 167.85 145.12 167.962 144.547 167.961V167.962Z" fill="url(#paint1_linear_30_1001)"/>
<defs>
<filter id="filter0_d_30_1001" x="0.723633" y="0.296875" width="260" height="260" filterUnits="userSpaceOnUse" color-interpolation-filters="sRGB">
<feFlood flood-opacity="0" result="BackgroundImageFix"/>
<feColorMatrix in="SourceAlpha" type="matrix" values="0 0 0 0 0 0 0 0 0 0 0 0 0 0 0 0 0 0 127 0" result="hardAlpha"/>
<feOffset dy="4"/>
<feGaussianBlur stdDeviation="20"/>
<feComposite in2="hardAlpha" operator="out"/>
<feColorMatrix type="matrix" values="0 0 0 0 0.0367917 0 0 0 0 0.0348958 0 0 0 0 0.0484375 0 0 0 0.1 0"/>
<feBlend mode="normal" in2="BackgroundImageFix" result="effect1_dropShadow_30_1001"/>
<feBlend mode="normal" in="SourceGraphic" in2="effect1_dropShadow_30_1001" result="shape"/>
</filter>
<linearGradient id="paint0_linear_30_1001" x1="90.4381" y1="85.0987" x2="139.995" y2="134.161" gradientUnits="userSpaceOnUse">
<stop stop-color="#387EB8"/>
<stop offset="1" stop-color="#366994"/>
</linearGradient>
<linearGradient id="paint1_linear_30_1001" x1="120.857" y1="116.604" x2="174.075" y2="166.913" gradientUnits="userSpaceOnUse">
<stop stop-color="#FFE052"/>
<stop offset="1" stop-color="#FFC331"/>
</linearGradient>
</defs>
</svg>
