<svg width="180" height="180" viewBox="0 0 180 180" fill="none" xmlns="http://www.w3.org/2000/svg">
<path d="M89.6397 40.26C64.2535 40.26 65.8385 51.269 65.8385 51.269L65.8667 62.6746H90.0924V66.0989H56.2447C56.2447 66.0989 40 64.2566 40 89.8711C40 115.486 54.1788 114.578 54.1788 114.578H62.6406V102.691C62.6406 102.691 62.1844 88.5128 76.593 88.5128H100.621C100.621 88.5128 114.12 88.7309 114.12 75.466V53.5334C114.12 53.5334 116.17 40.26 89.6397 40.26ZM76.2817 47.9301C76.8542 47.9296 77.4211 48.0419 77.9501 48.2608C78.4791 48.4796 78.9598 48.8006 79.3645 49.2054C79.7693 49.6102 80.0903 50.0908 80.3092 50.6198C80.528 51.1488 80.6404 51.7158 80.6399 52.2882C80.6404 52.8607 80.528 53.4277 80.3092 53.9567C80.0903 54.4857 79.7693 54.9663 79.3645 55.3711C78.9598 55.7759 78.4791 56.0969 77.9501 56.3157C77.4211 56.5346 76.8542 56.6469 76.2817 56.6464C75.7092 56.6469 75.1423 56.5346 74.6133 56.3157C74.0843 56.0969 73.6037 55.7759 73.1989 55.3711C72.7941 54.9663 72.4731 54.4857 72.2542 53.9567C72.0354 53.4277 71.923 52.8607 71.9235 52.2882C71.923 51.7158 72.0354 51.1488 72.2542 50.6198C72.4731 50.0908 72.7941 49.6102 73.1989 49.2054C73.6037 48.8006 74.0843 48.4796 74.6133 48.2608C75.1423 48.0419 75.7092 47.9296 76.2817 47.9301V47.9301Z" fill="url(#paint0_linear_23_696)"/>
<path d="M90.361 139.74C115.747 139.74 114.162 128.731 114.162 128.731L114.134 117.326H89.908V113.902H123.756C123.756 113.902 140 115.744 140 90.1285C140 64.5135 125.822 65.422 125.822 65.422H117.36V77.3081C117.36 77.3081 117.816 91.4868 103.407 91.4868H79.3799C79.3799 91.4868 65.8805 91.2687 65.8805 104.534V126.467C65.8805 126.467 63.8306 139.74 90.3607 139.74H90.361ZM103.719 132.071C103.147 132.071 102.58 131.959 102.051 131.74C101.522 131.521 101.041 131.2 100.636 130.795C100.231 130.391 99.9104 129.91 99.6916 129.381C99.4728 128.852 99.3604 128.285 99.3609 127.713C99.3603 127.14 99.4727 126.573 99.6915 126.044C99.9103 125.515 100.231 125.034 100.636 124.629C101.041 124.225 101.522 123.904 102.051 123.685C102.58 123.466 103.147 123.354 103.719 123.354C104.292 123.354 104.858 123.466 105.387 123.685C105.916 123.904 106.397 124.225 106.802 124.629C107.207 125.034 107.528 125.515 107.747 126.044C107.965 126.573 108.078 127.14 108.077 127.712C108.078 128.285 107.965 128.852 107.747 129.381C107.528 129.91 107.207 130.39 106.802 130.795C106.397 131.2 105.916 131.521 105.387 131.74C104.858 131.959 104.292 132.071 103.719 132.07V132.071Z" fill="url(#paint1_linear_23_696)"/>
<defs>
<linearGradient id="paint0_linear_23_696" x1="49.61" y1="49.2076" x2="99.1669" y2="98.2702" gradientUnits="userSpaceOnUse">
<stop stop-color="#387EB8"/>
<stop offset="1" stop-color="#366994"/>
</linearGradient>
<linearGradient id="paint1_linear_23_696" x1="80.0284" y1="80.7127" x2="133.247" y2="131.022" gradientUnits="userSpaceOnUse">
<stop stop-color="#FFE052"/>
<stop offset="1" stop-color="#FFC331"/>
</linearGradient>
</defs>
</svg>
