<svg width="261" height="261" viewBox="0 0 261 261" fill="none" xmlns="http://www.w3.org/2000/svg">
<g filter="url(#filter0_d_30_933)">
<rect x="40.0371" y="36.8911" width="180" height="180" rx="90" fill="white"/>
<rect x="40.5371" y="37.3911" width="179" height="179" rx="89.5" stroke="white"/>
</g>
<path d="M176.396 149.558C171.059 152.339 143.413 163.706 137.528 166.774C131.642 169.843 128.373 169.813 123.723 167.591C119.074 165.368 89.6545 153.485 84.3549 150.951C81.7064 149.686 80.3135 148.617 80.3135 147.608V137.5C80.3135 137.5 118.614 129.162 124.797 126.944C130.98 124.725 133.126 124.645 138.387 126.572C143.65 128.501 175.113 134.177 180.313 136.082L180.311 146.047C180.312 147.046 179.112 148.142 176.396 149.558" fill="#912626"/>
<path d="M176.393 139.51C171.057 142.29 143.413 153.657 137.527 156.725C131.642 159.794 128.372 159.764 123.723 157.542C119.074 155.32 89.6552 143.435 84.356 140.903C79.0567 138.37 78.9458 136.627 84.1513 134.588C89.3567 132.549 118.614 121.071 124.798 118.853C130.981 116.635 133.125 116.554 138.387 118.482C143.649 120.41 171.129 131.347 176.329 133.252C181.53 135.158 181.73 136.728 176.393 139.51" fill="#C6302B"/>
<path d="M176.396 133.203C171.059 135.985 143.413 147.351 137.528 150.421C131.642 153.488 128.373 153.458 123.723 151.236C119.074 149.014 89.6545 137.13 84.3549 134.596C81.7064 133.331 80.3135 132.264 80.3135 131.254V121.145C80.3135 121.145 118.614 112.807 124.797 110.589C130.98 108.371 133.126 108.29 138.387 110.218C143.65 112.146 175.113 117.821 180.313 119.726L180.311 129.692C180.312 130.691 179.112 131.787 176.396 133.203Z" fill="#912626"/>
<path d="M176.393 123.155C171.057 125.936 143.413 137.302 137.527 140.371C131.642 143.439 128.372 143.409 123.723 141.187C119.074 138.966 89.6552 127.08 84.356 124.548C79.0567 122.016 78.9458 120.272 84.1513 118.233C89.3567 116.195 118.614 104.716 124.798 102.498C130.981 100.28 133.125 100.2 138.387 102.127C143.649 104.055 171.129 114.992 176.329 116.897C181.53 118.803 181.73 120.373 176.393 123.155" fill="#C6302B"/>
<path d="M176.396 116.241C171.059 119.023 143.413 130.39 137.528 133.459C131.642 136.527 128.373 136.497 123.723 134.275C119.074 132.053 89.6545 120.168 84.3549 117.636C81.7064 116.369 80.3135 115.302 80.3135 114.293V104.184C80.3135 104.184 118.614 95.8464 124.797 93.6285C130.98 91.4097 133.126 91.33 138.387 93.2574C143.65 95.1851 175.113 100.861 180.313 102.766L180.311 112.731C180.312 113.729 179.112 114.825 176.396 116.241Z" fill="#912626"/>
<path d="M176.393 106.193C171.057 108.975 143.412 120.342 137.527 123.41C131.642 126.478 128.372 126.448 123.723 124.226C119.074 122.003 89.655 110.119 84.3562 107.587C79.0566 105.055 78.946 103.31 84.1511 101.272C89.3566 99.2335 118.614 87.7558 124.798 85.537C130.98 83.3186 133.125 83.239 138.387 85.1667C143.649 87.0944 171.129 98.0315 176.328 99.9366C181.53 101.841 181.73 103.412 176.393 106.193" fill="#C6302B"/>
<path d="M142.534 96.3601L133.936 97.2527L132.011 101.884L128.903 96.716L118.975 95.8238L126.383 93.1523L124.16 89.0515L131.096 91.764L137.634 89.6234L135.867 93.8636L142.534 96.3601V96.3601ZM131.498 118.828L115.452 112.173L138.445 108.644L131.498 118.828V118.828ZM109.252 98.9343C116.039 98.9343 121.541 101.067 121.541 103.698C121.541 106.329 116.039 108.461 109.252 108.461C102.465 108.461 96.9629 106.328 96.9629 103.698C96.9629 101.067 102.465 98.9343 109.252 98.9343Z" fill="white"/>
<path d="M152.694 97.6261L166.302 103.003L152.706 108.376L152.694 97.6257" fill="#621B1C"/>
<path d="M137.64 103.581L152.694 97.626L152.706 108.376L151.23 108.953L137.64 103.581Z" fill="#9A2928"/>
<defs>
<filter id="filter0_d_30_933" x="0.0371094" y="0.891113" width="260" height="260" filterUnits="userSpaceOnUse" color-interpolation-filters="sRGB">
<feFlood flood-opacity="0" result="BackgroundImageFix"/>
<feColorMatrix in="SourceAlpha" type="matrix" values="0 0 0 0 0 0 0 0 0 0 0 0 0 0 0 0 0 0 127 0" result="hardAlpha"/>
<feOffset dy="4"/>
<feGaussianBlur stdDeviation="20"/>
<feComposite in2="hardAlpha" operator="out"/>
<feColorMatrix type="matrix" values="0 0 0 0 0.0367917 0 0 0 0 0.0348958 0 0 0 0 0.0484375 0 0 0 0.1 0"/>
<feBlend mode="normal" in2="BackgroundImageFix" result="effect1_dropShadow_30_933"/>
<feBlend mode="normal" in="SourceGraphic" in2="effect1_dropShadow_30_933" result="shape"/>
</filter>
</defs>
</svg>
