<svg width="180" height="180" viewBox="0 0 180 180" fill="none" xmlns="http://www.w3.org/2000/svg">
<path d="M136.082 113.072C130.745 115.854 103.1 127.221 97.2145 130.289C91.3289 133.358 88.0594 133.328 83.4098 131.105C78.7605 128.883 49.341 116.999 44.0414 114.466C41.393 113.2 40 112.132 40 111.122V101.014C40 101.014 78.3008 92.6765 84.484 90.4582C90.6668 88.2398 92.8121 88.1597 98.0738 90.0871C103.336 92.0152 134.8 97.6918 140 99.5965L139.998 109.561C139.998 110.561 138.798 111.657 136.082 113.072" fill="#912626"/>
<path d="M136.08 103.024C130.744 105.805 103.099 117.172 97.2136 120.24C91.3284 123.309 88.0589 123.279 83.4097 121.056C78.7601 118.835 49.3417 106.95 44.0425 104.418C38.7433 101.885 38.6323 100.142 43.8378 98.1034C49.0433 96.0643 78.3003 84.5858 84.4843 82.3674C90.6671 80.1499 92.812 80.069 98.0737 81.9971C103.336 83.9245 130.816 94.8623 136.015 96.7666C141.217 98.6733 141.416 100.243 136.08 103.024" fill="#C6302B"/>
<path d="M136.082 96.7175C130.745 99.4995 103.1 110.866 97.2145 113.935C91.3289 117.003 88.0594 116.973 83.4098 114.751C78.7602 112.529 49.341 100.644 44.0414 98.1113C41.393 96.8456 40 95.7784 40 94.7687V84.6597C40 84.6597 78.3008 76.3222 84.484 74.1038C90.6668 71.8855 92.8121 71.805 98.0738 73.7327C103.337 75.6605 134.8 81.3359 140 83.2409L139.998 93.207C139.998 94.2058 138.798 95.3019 136.082 96.7175Z" fill="#912626"/>
<path d="M136.08 86.6693C130.744 89.4506 103.099 100.817 97.2136 103.886C91.3284 106.954 88.0589 106.924 83.4097 104.701C78.7601 102.48 49.3417 90.5951 44.0425 88.0631C38.7433 85.5306 38.6323 83.7869 43.8378 81.7478C49.0433 79.7099 78.3007 68.2306 84.4843 66.0127C90.6671 63.7947 92.812 63.7142 98.0737 65.642C103.336 67.5693 130.816 78.5064 136.015 80.4115C141.217 82.3177 141.416 83.8881 136.08 86.6693" fill="#C6302B"/>
<path d="M136.082 79.7558C130.745 82.5371 103.1 93.9043 97.2145 96.9738C91.3289 100.042 88.0594 100.012 83.4098 97.789C78.7602 95.5675 49.341 83.6824 44.0414 81.1503C41.393 79.8835 40 78.816 40 77.8074V67.698C40 67.698 78.3008 59.3609 84.484 57.1429C90.6668 54.9241 92.8121 54.8444 98.0738 56.7718C103.337 58.6995 134.8 64.3749 140 66.28L139.998 76.2456C139.998 77.2437 138.798 78.3398 136.082 79.7558Z" fill="#912626"/>
<path d="M136.08 69.7079C130.743 72.4892 103.099 83.8564 97.2134 86.9243C91.3282 89.9923 88.0587 89.9622 83.4095 87.7407C78.7603 85.5181 49.3415 73.6337 44.0427 71.1013C38.7431 68.5692 38.6325 66.8251 43.8376 64.7864C49.0431 62.7481 78.3005 51.2704 84.4841 49.0517C90.6669 46.8333 92.8118 46.7536 98.0735 48.6813C103.336 50.6091 130.815 61.5462 136.015 63.4513C141.217 65.356 141.416 66.9267 136.08 69.7079" fill="#C6302B"/>
<path d="M102.22 59.8745L93.6225 60.7671L91.6979 65.3983L88.5893 60.2304L78.6616 59.3382L86.0694 56.6667L83.8467 52.5659L90.7823 55.2784L97.3206 53.1378L95.5534 57.378L102.22 59.8745V59.8745ZM91.1846 82.3424L75.1389 75.6874L98.1311 72.1581L91.1846 82.3424V82.3424ZM68.9385 62.4487C75.7256 62.4487 81.2276 64.5815 81.2276 67.212C81.2276 69.8432 75.7256 71.9757 68.9385 71.9757C62.1514 71.9757 56.6494 69.8428 56.6494 67.212C56.6494 64.5815 62.1514 62.4487 68.9385 62.4487Z" fill="white"/>
<path d="M112.381 61.1405L125.989 66.5179L112.393 71.8902L112.381 61.1401" fill="#621B1C"/>
<path d="M97.3262 67.0957L112.381 61.1406L112.393 71.8903L110.916 72.4676L97.3262 67.0957Z" fill="#9A2928"/>
</svg>
