<svg width="180" height="180" viewBox="0 0 180 180" fill="none" xmlns="http://www.w3.org/2000/svg">
<path d="M117.474 105.959L60.3809 139.861L134.307 134.845L140 60.302L117.474 105.959L117.474 105.959Z" fill="url(#paint0_linear_23_693)"/>
<path d="M134.428 134.793L128.074 90.9387L110.767 113.793L134.428 134.794V134.793Z" fill="url(#paint1_linear_23_693)"/>
<path d="M134.514 134.794L87.9639 131.14L60.6279 139.766L134.514 134.794V134.794Z" fill="url(#paint2_linear_23_693)"/>
<path d="M60.6935 139.776L72.3225 101.679L46.7324 107.15L60.6931 139.775L60.6935 139.776Z" fill="url(#paint3_linear_23_693)"/>
<path d="M110.762 113.918L100.062 72.0068L69.4404 100.711L110.762 113.919V113.918Z" fill="url(#paint4_linear_23_693)"/>
<path d="M137.572 72.5967L108.627 48.9558L100.566 75.0143L137.572 72.5967V72.5967Z" fill="url(#paint5_linear_23_693)"/>
<path d="M124.036 40.5268L107.012 49.9352L96.2715 40.4009L124.036 40.5272V40.5268Z" fill="url(#paint6_linear_23_693)"/>
<path d="M40 119.93L47.1316 106.923L41.3626 91.428L40 119.93Z" fill="url(#paint7_linear_23_693)"/>
<path d="M40.9795 90.9388L46.7838 107.403L72.0047 101.744L100.799 74.9838L108.925 49.1729L96.1298 40.1384L74.3764 48.2795C67.5226 54.6543 54.2234 67.2673 53.7439 67.5042C53.2692 67.7467 44.9618 83.4486 40.9795 90.9388V90.9388Z" fill="white"/>
<path d="M61.3597 61.3618C76.2137 46.6341 95.3627 37.9327 102.711 45.3472C110.056 52.7617 102.267 70.7799 87.4131 85.5029C72.5591 100.226 53.6474 109.406 46.3036 101.992C38.955 94.5825 46.5056 76.0848 61.3597 61.3618V61.3618Z" fill="url(#paint8_linear_23_693)"/>
<path d="M60.6934 139.76L72.2313 101.543L110.549 113.853C96.695 126.844 81.2858 137.827 60.6934 139.76V139.76Z" fill="url(#paint9_linear_23_693)"/>
<path d="M100.849 74.9085L110.686 113.873C122.259 101.704 132.646 88.622 137.733 72.4407L100.849 74.9085H100.849Z" fill="url(#paint10_linear_23_693)"/>
<path d="M137.633 72.6374C141.57 60.7565 142.478 43.712 123.914 40.5474L108.682 48.9611L137.633 72.6374V72.6374Z" fill="url(#paint11_linear_23_693)"/>
<path d="M40 119.758C40.5454 139.367 54.6924 139.659 60.7188 139.831L46.7985 107.322L40 119.758Z" fill="#9E1209"/>
<path d="M100.904 74.9693C109.798 80.4354 127.721 91.4131 128.084 91.6147C128.649 91.9325 135.811 79.5369 137.437 72.5312L100.904 74.9693V74.9693Z" fill="url(#paint12_radial_23_693)"/>
<path d="M72.2168 101.543L87.6409 131.301C96.7613 126.355 103.903 120.328 110.444 113.873L72.2168 101.543Z" fill="url(#paint13_radial_23_693)"/>
<path d="M46.7381 107.362L44.5527 133.385C48.6762 139.018 54.3495 139.508 60.2998 139.069C55.9946 128.354 47.3941 106.928 46.7381 107.362Z" fill="url(#paint14_linear_23_693)"/>
<path d="M108.592 49.0266L139.234 53.3267C137.598 46.3972 132.576 41.9253 124.016 40.5273L108.592 49.0266V49.0266Z" fill="url(#paint15_linear_23_693)"/>
<defs>
<linearGradient id="paint0_linear_23_693" x1="127.858" y1="148.93" x2="106.786" y2="111.671" gradientUnits="userSpaceOnUse">
<stop stop-color="#FB7655"/>
<stop offset="0.41" stop-color="#E42B1E"/>
<stop offset="0.99" stop-color="#990000"/>
<stop offset="1" stop-color="#990000"/>
</linearGradient>
<linearGradient id="paint1_linear_23_693" x1="138.368" y1="117.642" x2="108.746" y2="111.856" gradientUnits="userSpaceOnUse">
<stop stop-color="#871101"/>
<stop offset="0.99" stop-color="#911209"/>
<stop offset="1" stop-color="#911209"/>
</linearGradient>
<linearGradient id="paint2_linear_23_693" x1="116.614" y1="150.059" x2="116.232" y2="131.271" gradientUnits="userSpaceOnUse">
<stop stop-color="#871101"/>
<stop offset="0.99" stop-color="#911209"/>
<stop offset="1" stop-color="#911209"/>
</linearGradient>
<linearGradient id="paint3_linear_23_693" x1="59.5305" y1="104.435" x2="68.3379" y2="130.261" gradientUnits="userSpaceOnUse">
<stop stop-color="white"/>
<stop offset="0.23" stop-color="#E57252"/>
<stop offset="0.46" stop-color="#DE3B20"/>
<stop offset="0.99" stop-color="#A60003"/>
<stop offset="1" stop-color="#A60003"/>
</linearGradient>
<linearGradient id="paint4_linear_23_693" x1="88.5202" y1="78.8587" x2="90.1176" y2="106.811" gradientUnits="userSpaceOnUse">
<stop stop-color="white"/>
<stop offset="0.23" stop-color="#E4714E"/>
<stop offset="0.56" stop-color="#BE1A0D"/>
<stop offset="0.99" stop-color="#A80D00"/>
<stop offset="1" stop-color="#A80D00"/>
</linearGradient>
<linearGradient id="paint5_linear_23_693" x1="114.246" y1="53.0194" x2="116.582" y2="73.3204" gradientUnits="userSpaceOnUse">
<stop stop-color="white"/>
<stop offset="0.18" stop-color="#E46342"/>
<stop offset="0.4" stop-color="#C82410"/>
<stop offset="0.99" stop-color="#A80D00"/>
<stop offset="1" stop-color="#A80D00"/>
</linearGradient>
<linearGradient id="paint6_linear_23_693" x1="100.05" y1="45.9638" x2="103.343" y2="31.9988" gradientUnits="userSpaceOnUse">
<stop stop-color="white"/>
<stop offset="0.54" stop-color="#C81F11"/>
<stop offset="0.99" stop-color="#BF0905"/>
<stop offset="1" stop-color="#BF0905"/>
</linearGradient>
<linearGradient id="paint7_linear_23_693" x1="41.97" y1="97.4518" x2="50.5828" y2="102.85" gradientUnits="userSpaceOnUse">
<stop stop-color="white"/>
<stop offset="0.31" stop-color="#DE4024"/>
<stop offset="0.99" stop-color="#BF190B"/>
<stop offset="1" stop-color="#BF190B"/>
</linearGradient>
<linearGradient id="paint8_linear_23_693" x1="30.6343" y1="118.423" x2="108.031" y2="38.6102" gradientUnits="userSpaceOnUse">
<stop stop-color="#BD0012"/>
<stop offset="0.07" stop-color="white"/>
<stop offset="0.17" stop-color="white"/>
<stop offset="0.27" stop-color="#C82F1C"/>
<stop offset="0.33" stop-color="#820C01"/>
<stop offset="0.46" stop-color="#A31601"/>
<stop offset="0.72" stop-color="#B31301"/>
<stop offset="0.99" stop-color="#E82609"/>
<stop offset="1" stop-color="#E82609"/>
</linearGradient>
<linearGradient id="paint9_linear_23_693" x1="90.0047" y1="126.463" x2="68.1019" y2="117.263" gradientUnits="userSpaceOnUse">
<stop stop-color="#8C0C01"/>
<stop offset="0.54" stop-color="#990C00"/>
<stop offset="0.99" stop-color="#A80D0E"/>
<stop offset="1" stop-color="#A80D0E"/>
</linearGradient>
<linearGradient id="paint10_linear_23_693" x1="130.105" y1="98.4412" x2="107.544" y2="82.4157" gradientUnits="userSpaceOnUse">
<stop stop-color="#7E110B"/>
<stop offset="0.99" stop-color="#9E0C00"/>
<stop offset="1" stop-color="#9E0C00"/>
</linearGradient>
<linearGradient id="paint11_linear_23_693" x1="137.726" y1="64.3331" x2="127.116" y2="53.5627" gradientUnits="userSpaceOnUse">
<stop stop-color="#79130D"/>
<stop offset="0.99" stop-color="#9E120B"/>
<stop offset="1" stop-color="#9E120B"/>
</linearGradient>
<radialGradient id="paint12_radial_23_693" cx="0" cy="0" r="1" gradientUnits="userSpaceOnUse" gradientTransform="translate(112.595 80.2071) scale(25.4167 13.2811)">
<stop stop-color="#A80D00"/>
<stop offset="0.99" stop-color="#7E0E08"/>
<stop offset="1" stop-color="#7E0E08"/>
</radialGradient>
<radialGradient id="paint13_radial_23_693" cx="0" cy="0" r="1" gradientUnits="userSpaceOnUse" gradientTransform="translate(77.3962 113.702) scale(33.7877 26.3022)">
<stop stop-color="#A30C00"/>
<stop offset="0.99" stop-color="#800E08"/>
<stop offset="1" stop-color="#800E08"/>
</radialGradient>
<linearGradient id="paint14_linear_23_693" x1="53.4608" y1="139.738" x2="34.4382" y2="123.948" gradientUnits="userSpaceOnUse">
<stop stop-color="#8B2114"/>
<stop offset="0.43" stop-color="#9E100A"/>
<stop offset="0.99" stop-color="#B3100C"/>
<stop offset="1" stop-color="#B3100C"/>
</linearGradient>
<linearGradient id="paint15_linear_23_693" x1="118.051" y1="45.0838" x2="123.45" y2="58.7426" gradientUnits="userSpaceOnUse">
<stop stop-color="#B31000"/>
<stop offset="0.44" stop-color="#910F08"/>
<stop offset="0.99" stop-color="#791C12"/>
<stop offset="1" stop-color="#791C12"/>
</linearGradient>
</defs>
</svg>
