<svg width="180" height="180" viewBox="0 0 180 180" fill="none" xmlns="http://www.w3.org/2000/svg">
<path d="M131.059 45.7957C129.622 49.2885 127.764 52.3849 125.708 55.1592C116.642 45.9196 103.959 40.0488 89.9635 40.0488C62.4675 40.0488 40 62.3924 40 89.9875C40 104.404 46.168 117.384 55.9526 126.55L57.8105 128.209C66.4556 135.517 77.7017 139.951 89.9387 139.951C116.196 139.951 137.821 119.465 139.679 93.6041C141.165 81.0451 137.351 64.9686 131.059 45.7957ZM63.1858 126.971C61.7491 128.829 59.0738 129.027 57.216 127.59C55.3581 126.153 55.16 123.478 56.5967 121.62C58.0334 119.762 60.7087 119.564 62.5665 121.001C64.3253 122.438 64.6225 125.113 63.1858 126.971ZM130.762 112.034C118.5 128.408 92.1433 122.859 75.3485 123.676C75.3485 123.676 72.3512 123.874 69.3786 124.296C69.3786 124.296 70.5181 123.775 71.9548 123.255C83.7954 119.143 89.369 118.301 96.5774 114.61C110.078 107.699 123.553 92.5637 126.253 76.9083C121.101 91.9444 105.445 104.925 91.2268 110.176C81.4422 113.793 63.8299 117.285 63.8299 117.285L63.1115 116.864C51.1718 110.993 50.7507 85.0333 72.5989 76.6854C82.1853 72.9697 91.2516 75.0257 101.655 72.5734C112.679 69.9972 125.461 61.7484 130.588 50.9481C136.31 68.3623 143.321 95.3381 130.762 112.034Z" fill="#6CB52D"/>
<path d="M63.1853 126.971C61.7486 128.829 59.0733 129.027 57.2155 127.59C55.3577 126.153 55.1595 123.478 56.5962 121.62C58.0329 119.762 60.7082 119.564 62.5661 121.001C64.3248 122.438 64.6221 125.113 63.1853 126.971Z" fill="#6CB52D"/>
</svg>
