<svg width="261" height="261" viewBox="0 0 261 261" fill="none" xmlns="http://www.w3.org/2000/svg">
<g filter="url(#filter0_d_30_928)">
<rect x="40.7236" y="36.8418" width="180" height="180" rx="90" fill="white"/>
<rect x="41.2236" y="37.3418" width="179" height="179" rx="89.5" stroke="white"/>
</g>
<path d="M172.059 82.2318C170.622 85.7245 168.764 88.8209 166.708 91.5953C157.642 82.3556 144.959 76.4849 130.963 76.4849C103.467 76.4849 81 98.8285 81 126.424C81 140.84 87.168 153.82 96.9526 162.986L98.8105 164.645C107.456 171.953 118.702 176.387 130.939 176.387C157.196 176.387 178.821 155.901 180.679 130.04C182.165 117.481 178.351 101.405 172.059 82.2318ZM104.186 163.407C102.749 165.265 100.074 165.463 98.216 164.026C96.3581 162.589 96.16 159.914 97.5967 158.056C99.0334 156.199 101.709 156 103.567 157.437C105.325 158.874 105.623 161.549 104.186 163.407ZM171.762 148.47C159.5 164.844 133.143 159.295 116.348 160.112C116.348 160.112 113.351 160.311 110.379 160.732C110.379 160.732 111.518 160.211 112.955 159.691C124.795 155.579 130.369 154.737 137.577 151.046C151.078 144.135 164.553 129 167.253 113.344C162.101 128.38 146.445 141.361 132.227 146.612C122.442 150.229 104.83 153.721 104.83 153.721L104.112 153.3C92.1718 147.43 91.7507 121.469 113.599 113.121C123.185 109.406 132.252 111.462 142.655 109.009C153.679 106.433 166.461 98.1844 171.588 87.3842C177.31 104.798 184.321 131.774 171.762 148.47Z" fill="#6CB52D"/>
<path d="M104.185 163.407C102.749 165.265 100.073 165.463 98.2155 164.026C96.3577 162.589 96.1595 159.914 97.5962 158.056C99.0329 156.198 101.708 156 103.566 157.437C105.325 158.874 105.622 161.549 104.185 163.407Z" fill="#6CB52D"/>
<defs>
<filter id="filter0_d_30_928" x="0.723633" y="0.841797" width="260" height="260" filterUnits="userSpaceOnUse" color-interpolation-filters="sRGB">
<feFlood flood-opacity="0" result="BackgroundImageFix"/>
<feColorMatrix in="SourceAlpha" type="matrix" values="0 0 0 0 0 0 0 0 0 0 0 0 0 0 0 0 0 0 127 0" result="hardAlpha"/>
<feOffset dy="4"/>
<feGaussianBlur stdDeviation="20"/>
<feComposite in2="hardAlpha" operator="out"/>
<feColorMatrix type="matrix" values="0 0 0 0 0.0367917 0 0 0 0 0.0348958 0 0 0 0 0.0484375 0 0 0 0.1 0"/>
<feBlend mode="normal" in2="BackgroundImageFix" result="effect1_dropShadow_30_928"/>
<feBlend mode="normal" in="SourceGraphic" in2="effect1_dropShadow_30_928" result="shape"/>
</filter>
</defs>
</svg>
