<svg width="180" height="180" viewBox="0 0 180 180" fill="none" xmlns="http://www.w3.org/2000/svg">
<path d="M68.181 81.8182C68.181 83.0488 68.314 84.0466 68.5469 84.7783C68.8129 85.51 69.1455 86.3082 69.6111 87.1729C69.7774 87.439 69.844 87.7051 69.844 87.9379C69.844 88.2705 69.6444 88.603 69.212 88.9356L67.1167 90.3325C66.8174 90.5321 66.5181 90.6318 66.252 90.6318C65.9194 90.6318 65.5868 90.4656 65.2542 90.1662C64.7886 89.6673 64.3895 89.1352 64.0569 88.603C63.7243 88.0376 63.3917 87.4057 63.0259 86.6408C60.4317 89.7006 57.1723 91.2305 53.2477 91.2305C50.454 91.2305 48.2256 90.4323 46.5959 88.8359C44.9662 87.2394 44.1348 85.1109 44.1348 82.4501C44.1348 79.6231 45.1325 77.3283 47.1613 75.5988C49.1901 73.8693 51.8841 73.0046 55.3098 73.0046C56.4406 73.0046 57.6046 73.1044 58.8352 73.2707C60.0658 73.437 61.3297 73.703 62.66 74.0024V71.5744C62.66 69.0468 62.1279 67.284 61.0968 66.253C60.0326 65.222 58.2366 64.7231 55.6756 64.7231C54.5116 64.7231 53.3142 64.8561 52.0837 65.1555C50.8531 65.4548 49.6558 65.8206 48.4917 66.2863C47.9595 66.5191 47.5604 66.6521 47.3276 66.7186C47.0948 66.7852 46.9285 66.8184 46.7955 66.8184C46.3299 66.8184 46.097 66.4858 46.097 65.7874V64.1577C46.097 63.6255 46.1636 63.2264 46.3299 62.9936C46.4962 62.7608 46.7955 62.528 47.2611 62.2952C48.4252 61.6965 49.822 61.1976 51.4517 60.7985C53.0814 60.3662 54.8109 60.1666 56.6401 60.1666C60.598 60.1666 63.4915 61.0646 65.354 62.8606C67.1832 64.6566 68.1145 67.3838 68.1145 71.0423V81.8182H68.181ZM54.6779 86.8736C55.7754 86.8736 56.9062 86.674 58.1035 86.2749C59.3009 85.8758 60.3651 85.1441 61.2631 84.1463C61.7953 83.5144 62.1944 82.816 62.3939 82.0178C62.5935 81.2196 62.7265 80.255 62.7265 79.1242V77.7274C61.762 77.4945 60.731 77.295 59.6667 77.162C58.6024 77.0289 57.5714 76.9624 56.5404 76.9624C54.312 76.9624 52.6823 77.3948 51.5848 78.2928C50.4872 79.1908 49.9551 80.4546 49.9551 82.1175C49.9551 83.6807 50.3542 84.8448 51.1857 85.643C51.9839 86.4745 53.1479 86.8736 54.6779 86.8736V86.8736ZM81.3848 90.4656C80.7862 90.4656 80.387 90.3658 80.121 90.133C79.8549 89.9334 79.6221 89.4678 79.4225 88.8359L71.6067 63.1267C71.4071 62.4615 71.3073 62.0291 71.3073 61.7963C71.3073 61.2642 71.5734 60.9648 72.1056 60.9648H75.3649C75.9969 60.9648 76.4292 61.0646 76.662 61.2974C76.9281 61.497 77.1277 61.9626 77.3272 62.5945L82.9147 84.612L88.1031 62.5945C88.2694 61.9293 88.469 61.497 88.735 61.2974C89.0011 61.0979 89.4667 60.9648 90.0654 60.9648H92.7261C93.358 60.9648 93.7904 61.0646 94.0565 61.2974C94.3226 61.497 94.5554 61.9626 94.6884 62.5945L99.9433 84.878L105.697 62.5945C105.897 61.9293 106.129 61.497 106.362 61.2974C106.628 61.0979 107.061 60.9648 107.659 60.9648H110.752C111.285 60.9648 111.584 61.2309 111.584 61.7963C111.584 61.9626 111.551 62.1289 111.517 62.3284C111.484 62.528 111.418 62.7941 111.285 63.1599L103.269 88.8691C103.07 89.5343 102.837 89.9667 102.571 90.1662C102.305 90.3658 101.872 90.4988 101.307 90.4988H98.4467C97.8147 90.4988 97.3824 90.399 97.1163 90.1662C96.8502 89.9334 96.6174 89.501 96.4844 88.8359L91.3292 67.3838L86.2074 88.8026C86.0411 89.4678 85.8415 89.9001 85.5754 90.133C85.3094 90.3658 84.8437 90.4656 84.2451 90.4656H81.3848ZM124.123 91.3635C122.393 91.3635 120.664 91.164 119.001 90.7649C117.338 90.3658 116.041 89.9334 115.176 89.4345C114.644 89.1352 114.278 88.8026 114.145 88.5033C114.012 88.2039 113.945 87.8713 113.945 87.572V85.8758C113.945 85.1774 114.211 84.8448 114.71 84.8448C114.91 84.8448 115.109 84.878 115.309 84.9446C115.509 85.0111 115.808 85.1441 116.14 85.2771C117.271 85.776 118.502 86.1751 119.799 86.4412C121.129 86.7073 122.426 86.8403 123.757 86.8403C125.852 86.8403 127.482 86.4745 128.613 85.7428C129.743 85.0111 130.342 83.9468 130.342 82.5832C130.342 81.6519 130.043 80.887 129.444 80.255C128.845 79.6231 127.715 79.0577 126.085 78.5256L121.262 77.0289C118.834 76.264 117.038 75.1332 115.941 73.6365C114.843 72.1731 114.278 70.5434 114.278 68.814C114.278 67.4171 114.577 66.1865 115.176 65.1222C115.775 64.0579 116.573 63.1267 117.571 62.395C118.568 61.63 119.699 61.0646 121.03 60.6655C122.36 60.2664 123.757 60.1001 125.22 60.1001C125.952 60.1001 126.717 60.1334 127.448 60.2331C128.213 60.3329 128.912 60.4659 129.61 60.599C130.276 60.7653 130.907 60.9316 131.506 61.1311C132.105 61.3307 132.57 61.5302 132.903 61.7298C133.369 61.9959 133.701 62.2619 133.901 62.5613C134.1 62.8273 134.2 63.1932 134.2 63.6588V65.222C134.2 65.9204 133.934 66.2863 133.435 66.2863C133.169 66.2863 132.737 66.1532 132.171 65.8872C130.276 65.0224 128.147 64.5901 125.786 64.5901C123.89 64.5901 122.393 64.8894 121.362 65.5213C120.331 66.1532 119.799 67.1177 119.799 68.4814C119.799 69.4126 120.132 70.2108 120.797 70.8428C121.462 71.4747 122.692 72.1066 124.455 72.672L129.178 74.1686C131.573 74.9336 133.302 75.9979 134.333 77.3615C135.364 78.7251 135.863 80.2883 135.863 82.0178C135.863 83.4479 135.564 84.745 134.998 85.8758C134.4 87.0066 133.601 88.0044 132.57 88.8026C131.539 89.6341 130.309 90.2327 128.879 90.6651C127.382 91.1307 125.819 91.3635 124.123 91.3635V91.3635Z" fill="white"/>
<path fill-rule="evenodd" clip-rule="evenodd" d="M130.408 107.527C119.466 115.609 103.568 119.9 89.8991 119.9C70.7419 119.9 53.4805 112.815 40.443 101.042C39.412 100.111 40.3432 98.8467 41.5738 99.5784C55.6756 107.76 73.07 112.716 91.0631 112.716C103.203 112.716 116.539 110.188 128.812 105C130.641 104.168 132.204 106.197 130.408 107.527V107.527Z" fill="#FF9900"/>
<path fill-rule="evenodd" clip-rule="evenodd" d="M134.965 102.339C133.568 100.543 125.719 101.474 122.16 101.907C121.096 102.04 120.93 101.108 121.894 100.41C128.147 96.0198 138.424 97.2837 139.621 98.7471C140.818 100.244 139.288 110.521 133.435 115.443C132.537 116.208 131.672 115.809 132.071 114.811C133.402 111.519 136.362 104.102 134.965 102.339V102.339Z" fill="#FF9900"/>
</svg>
