<svg width="261" height="261" viewBox="0 0 261 261" fill="none" xmlns="http://www.w3.org/2000/svg">
<g filter="url(#filter0_d_30_889)">
<rect x="40.7246" y="36.5938" width="180" height="180" rx="90" fill="white"/>
<rect x="41.2246" y="37.0938" width="179" height="179" rx="89.5" stroke="white"/>
</g>
<path d="M108.562 118.006C108.562 119.237 108.695 120.235 108.928 120.966C109.194 121.698 109.526 122.496 109.992 123.361C110.158 123.627 110.225 123.893 110.225 124.126C110.225 124.458 110.025 124.791 109.593 125.124L107.498 126.521C107.198 126.72 106.899 126.82 106.633 126.82C106.3 126.82 105.968 126.654 105.635 126.354C105.169 125.855 104.77 125.323 104.438 124.791C104.105 124.226 103.773 123.594 103.407 122.829C100.813 125.889 97.5531 127.418 93.6286 127.418C90.8348 127.418 88.6065 126.62 86.9768 125.024C85.3471 123.427 84.5156 121.299 84.5156 118.638C84.5156 115.811 85.5134 113.516 87.5422 111.787C89.571 110.057 92.265 109.193 95.6906 109.193C96.8214 109.193 97.9855 109.292 99.2161 109.459C100.447 109.625 101.711 109.891 103.041 110.19V107.762C103.041 105.235 102.509 103.472 101.478 102.441C100.413 101.41 98.6174 100.911 96.0565 100.911C94.8924 100.911 93.6951 101.044 92.4645 101.343C91.2339 101.643 90.0366 102.009 88.8726 102.474C88.3404 102.707 87.9413 102.84 87.7085 102.907C87.4757 102.973 87.3094 103.006 87.1763 103.006C86.7107 103.006 86.4779 102.674 86.4779 101.975V100.346C86.4779 99.8135 86.5444 99.4144 86.7107 99.1816C86.877 98.9488 87.1763 98.716 87.642 98.4832C88.806 97.8845 90.2029 97.3856 91.8326 96.9865C93.4623 96.5542 95.1918 96.3546 97.021 96.3546C100.979 96.3546 103.872 97.2526 105.735 99.0486C107.564 100.845 108.495 103.572 108.495 107.23V118.006H108.562ZM95.0587 123.062C96.1563 123.062 97.2871 122.862 98.4844 122.463C99.6817 122.064 100.746 121.332 101.644 120.334C102.176 119.702 102.575 119.004 102.775 118.206C102.974 117.408 103.107 116.443 103.107 115.312V113.915C102.143 113.683 101.112 113.483 100.048 113.35C98.9833 113.217 97.9523 113.15 96.9212 113.15C94.6929 113.15 93.0632 113.583 91.9656 114.481C90.8681 115.379 90.3359 116.643 90.3359 118.306C90.3359 119.869 90.7351 121.033 91.5665 121.831C92.3647 122.662 93.5288 123.062 95.0587 123.062V123.062ZM121.766 126.654C121.167 126.654 120.768 126.554 120.502 126.321C120.236 126.121 120.003 125.656 119.803 125.024L111.988 99.3147C111.788 98.6495 111.688 98.2171 111.688 97.9843C111.688 97.4522 111.954 97.1528 112.486 97.1528H115.746C116.378 97.1528 116.81 97.2526 117.043 97.4854C117.309 97.685 117.509 98.1506 117.708 98.7825L123.296 120.8L128.484 98.7825C128.65 98.1173 128.85 97.685 129.116 97.4854C129.382 97.2859 129.848 97.1528 130.446 97.1528H133.107C133.739 97.1528 134.171 97.2526 134.437 97.4854C134.703 97.685 134.936 98.1506 135.069 98.7825L140.324 121.066L146.078 98.7825C146.278 98.1173 146.51 97.685 146.743 97.4854C147.009 97.2859 147.442 97.1528 148.04 97.1528H151.133C151.665 97.1528 151.965 97.4189 151.965 97.9843C151.965 98.1506 151.932 98.3169 151.898 98.5164C151.865 98.716 151.799 98.9821 151.665 99.3479L143.65 125.057C143.451 125.722 143.218 126.155 142.952 126.354C142.686 126.554 142.253 126.687 141.688 126.687H138.828C138.196 126.687 137.763 126.587 137.497 126.354C137.231 126.121 136.998 125.689 136.865 125.024L131.71 103.572L126.588 124.991C126.422 125.656 126.222 126.088 125.956 126.321C125.69 126.554 125.225 126.654 124.626 126.654H121.766ZM164.503 127.552C162.774 127.552 161.045 127.352 159.382 126.953C157.719 126.554 156.422 126.121 155.557 125.623C155.025 125.323 154.659 124.991 154.526 124.691C154.393 124.392 154.326 124.059 154.326 123.76V122.064C154.326 121.365 154.592 121.033 155.091 121.033C155.291 121.033 155.49 121.066 155.69 121.133C155.889 121.199 156.189 121.332 156.521 121.465C157.652 121.964 158.883 122.363 160.18 122.629C161.51 122.895 162.807 123.028 164.138 123.028C166.233 123.028 167.863 122.662 168.993 121.931C170.124 121.199 170.723 120.135 170.723 118.771C170.723 117.84 170.424 117.075 169.825 116.443C169.226 115.811 168.095 115.246 166.466 114.714L161.643 113.217C159.215 112.452 157.419 111.321 156.322 109.824C155.224 108.361 154.659 106.731 154.659 105.002C154.659 103.605 154.958 102.374 155.557 101.31C156.155 100.246 156.954 99.3147 157.951 98.583C158.949 97.818 160.08 97.2526 161.41 96.8535C162.741 96.4544 164.138 96.2881 165.601 96.2881C166.333 96.2881 167.098 96.3213 167.829 96.4211C168.594 96.5209 169.293 96.6539 169.991 96.787C170.656 96.9533 171.288 97.1196 171.887 97.3191C172.486 97.5187 172.951 97.7182 173.284 97.9178C173.749 98.1838 174.082 98.4499 174.282 98.7493C174.481 99.0153 174.581 99.3812 174.581 99.8468V101.41C174.581 102.108 174.315 102.474 173.816 102.474C173.55 102.474 173.118 102.341 172.552 102.075C170.656 101.21 168.528 100.778 166.166 100.778C164.271 100.778 162.774 101.077 161.743 101.709C160.712 102.341 160.18 103.306 160.18 104.669C160.18 105.601 160.512 106.399 161.178 107.031C161.843 107.663 163.073 108.295 164.836 108.86L169.559 110.357C171.953 111.122 173.683 112.186 174.714 113.549C175.745 114.913 176.244 116.476 176.244 118.206C176.244 119.636 175.945 120.933 175.379 122.064C174.78 123.195 173.982 124.192 172.951 124.991C171.92 125.822 170.69 126.421 169.259 126.853C167.763 127.319 166.2 127.552 164.503 127.552V127.552Z" fill="#252F3E"/>
<path fill-rule="evenodd" clip-rule="evenodd" d="M170.789 143.715C159.847 151.797 143.949 156.088 130.28 156.088C111.123 156.088 93.8614 149.003 80.8239 137.23C79.7928 136.299 80.7241 135.035 81.9547 135.766C96.0565 143.948 113.451 148.904 131.444 148.904C143.583 148.904 156.92 146.376 169.193 141.188C171.022 140.356 172.585 142.385 170.789 143.715V143.715Z" fill="#FF9900"/>
<path fill-rule="evenodd" clip-rule="evenodd" d="M175.346 138.527C173.949 136.731 166.1 137.662 162.541 138.095C161.477 138.228 161.311 137.296 162.275 136.598C168.528 132.208 178.805 133.472 180.002 134.935C181.199 136.432 179.669 146.709 173.816 151.631C172.918 152.396 172.053 151.997 172.452 150.999C173.783 147.706 176.743 140.29 175.346 138.527V138.527Z" fill="#FF9900"/>
<defs>
<filter id="filter0_d_30_889" x="0.724609" y="0.59375" width="260" height="260" filterUnits="userSpaceOnUse" color-interpolation-filters="sRGB">
<feFlood flood-opacity="0" result="BackgroundImageFix"/>
<feColorMatrix in="SourceAlpha" type="matrix" values="0 0 0 0 0 0 0 0 0 0 0 0 0 0 0 0 0 0 127 0" result="hardAlpha"/>
<feOffset dy="4"/>
<feGaussianBlur stdDeviation="20"/>
<feComposite in2="hardAlpha" operator="out"/>
<feColorMatrix type="matrix" values="0 0 0 0 0.0367917 0 0 0 0 0.0348958 0 0 0 0 0.0484375 0 0 0 0.1 0"/>
<feBlend mode="normal" in2="BackgroundImageFix" result="effect1_dropShadow_30_889"/>
<feBlend mode="normal" in="SourceGraphic" in2="effect1_dropShadow_30_889" result="shape"/>
</filter>
</defs>
</svg>
