<svg width="180" height="180" viewBox="0 0 180 180" fill="none" xmlns="http://www.w3.org/2000/svg">
<path d="M134.045 69.6027C134.044 67.9378 133.688 66.4666 132.968 65.2043C132.26 63.9624 131.201 62.9217 129.78 62.0989C118.052 55.3363 106.312 48.5943 94.5875 41.8248C91.4267 39.9999 88.3619 40.0668 85.2245 41.9178C80.5562 44.6706 57.1839 58.0611 50.2193 62.0952C47.3511 63.7559 45.9554 66.297 45.9547 69.5996C45.9502 83.1997 45.9547 96.7998 45.9502 110.4C45.9502 112.028 46.2918 113.471 46.9802 114.715C47.6878 115.994 48.7619 117.063 50.2155 117.904C57.1805 121.938 80.5559 135.328 85.2231 138.082C88.3619 139.934 91.4267 140 94.5886 138.175C106.314 131.405 118.054 124.663 129.784 117.9C131.238 117.059 132.312 115.989 133.019 114.711C133.707 113.467 134.049 112.025 134.049 110.396C134.049 110.396 134.049 83.2032 134.045 69.6027Z" fill="#A179DC"/>
<path d="M90.1347 89.8672L46.9805 114.714C47.6881 115.994 48.7622 117.063 50.2158 117.904C57.1808 121.938 80.5562 135.328 85.2234 138.082C88.3623 139.934 91.427 140 94.5889 138.175C106.314 131.405 118.054 124.663 129.784 117.9C131.238 117.059 132.312 115.989 133.02 114.711L90.1347 89.8672Z" fill="#280068"/>
<path d="M134.045 69.6027C134.044 67.9378 133.688 66.4666 132.968 65.2043L90.1348 89.8676L133.02 114.711C133.707 113.468 134.049 112.025 134.049 110.396C134.049 110.396 134.049 83.2032 134.045 69.6027" fill="#390091"/>
<path d="M115.543 80.5786V85.2231H120.187V80.5786H122.509V85.2231H127.154V87.5453H122.509V92.1894H127.154V94.5117H122.509V99.1561H120.187V94.5117H115.543V99.1561H113.22V94.5117H108.576V92.1894H113.22V87.5453H108.576V85.2231H113.22V80.5786H115.543ZM120.187 87.545H115.543V92.1894H120.187V87.545Z" fill="white"/>
<path d="M90.2292 57.2535C102.343 57.2535 112.92 63.8325 118.585 73.6116L118.53 73.5175L104.276 81.7241C101.468 76.9696 96.3207 73.7608 90.415 73.6947L90.2288 73.6936C81.2236 73.6936 73.9228 80.9944 73.9228 89.9996C73.9199 92.838 74.6614 95.6275 76.0734 98.0897C78.8841 102.997 84.168 106.306 90.2292 106.306C96.3279 106.306 101.642 102.954 104.438 97.9953L104.37 98.1142L118.602 106.359C112.999 116.055 102.567 122.614 90.5939 122.744L90.2292 122.746C78.0768 122.746 67.4704 116.127 61.8194 106.296C59.0608 101.497 57.4824 95.9329 57.4824 89.9996C57.4824 71.9146 72.1432 57.2532 90.2288 57.2532L90.2292 57.2535Z" fill="white"/>
</svg>
