<svg width="180" height="180" viewBox="0 0 180 180" fill="none" xmlns="http://www.w3.org/2000/svg">
<path d="M134.087 40L126.054 129.99L89.9456 140L53.9366 130.004L45.9121 40H134.087Z" fill="#264DE4"/>
<path d="M119.177 124.259L126.042 47.3591H90V132.348L119.177 124.259Z" fill="#264DE4"/>
<path d="M64.3076 80.7402L65.297 91.7787H89.9992V80.7402H64.3076Z" fill="#EBEBEB"/>
<path d="M89.9998 58.3977H89.9617H62.3203L63.3238 69.4364H89.9998V58.3977Z" fill="#EBEBEB"/>
<path d="M90 120.893V109.408L89.9516 109.421L77.6579 106.102L76.872 97.2979H70.8982H65.791L67.3375 114.63L89.9492 120.907L90 120.893Z" fill="#EBEBEB"/>
<path d="M103.554 91.7785L102.272 106.095L89.9609 109.418V120.902L112.591 114.63L112.757 112.765L115.351 83.7042L115.62 80.7401L117.613 58.3977H89.9609V69.4364H105.515L104.511 80.7401H89.9609V91.7785H103.554Z" fill="white"/>
</svg>
