<svg width="261" height="261" viewBox="0 0 261 261" fill="none" xmlns="http://www.w3.org/2000/svg">
<g filter="url(#filter0_d_30_988)">
<rect x="40.7246" y="36.8911" width="180" height="180" rx="90" fill="white"/>
<rect x="41.2246" y="37.3911" width="179" height="179" rx="89.5" stroke="white"/>
</g>
<path d="M179.567 117.695C179.295 117.479 176.763 115.568 171.424 115.568C170.014 115.574 168.607 115.695 167.217 115.929C166.184 108.846 160.328 105.393 160.065 105.238L158.631 104.411L157.688 105.772C156.507 107.6 155.645 109.615 155.139 111.731C154.183 115.774 154.765 119.572 156.818 122.819C154.338 124.201 150.36 124.541 149.555 124.571H83.683C81.9625 124.573 80.5663 125.964 80.5569 127.684C80.4801 133.455 81.4578 139.191 83.4419 144.611C85.711 150.561 89.0869 154.945 93.4789 157.627C98.4006 160.642 106.397 162.364 115.46 162.364C119.555 162.377 123.642 162.006 127.668 161.257C133.264 160.23 138.649 158.274 143.6 155.47C147.679 153.108 151.35 150.102 154.472 146.57C159.691 140.662 162.8 134.083 165.112 128.235H166.033C171.747 128.235 175.261 125.949 177.198 124.033C178.486 122.811 179.491 121.322 180.144 119.671L180.553 118.474L179.567 117.695Z" fill="#2496ED"/>
<path d="M89.7883 122.642H98.6153C99.0411 122.642 99.3861 122.297 99.3861 121.872V114.009C99.3884 113.583 99.0453 113.236 98.6197 113.234C98.6183 113.234 98.6167 113.234 98.6153 113.234H89.7883C89.3626 113.234 89.0176 113.579 89.0176 114.005V114.009V121.871C89.0176 122.297 89.3626 122.642 89.7883 122.642V122.642Z" fill="#2496ED"/>
<path d="M101.953 122.642H110.78C111.206 122.642 111.551 122.297 111.551 121.872V114.009C111.553 113.583 111.21 113.236 110.784 113.234C110.783 113.234 110.781 113.234 110.78 113.234H101.953C101.525 113.234 101.178 113.581 101.178 114.009V121.871C101.18 122.298 101.526 122.642 101.953 122.642" fill="#2496ED"/>
<path d="M114.302 122.642H123.129C123.555 122.642 123.9 122.297 123.9 121.872V114.009C123.902 113.583 123.559 113.236 123.133 113.234C123.132 113.234 123.13 113.234 123.129 113.234H114.302C113.876 113.234 113.531 113.579 113.531 114.005V114.009V121.871C113.531 122.297 113.877 122.642 114.302 122.642V122.642Z" fill="#2496ED"/>
<path d="M126.505 122.642H135.332C135.759 122.642 136.105 122.298 136.107 121.872V114.009C136.107 113.581 135.76 113.234 135.332 113.234H126.505C126.079 113.234 125.734 113.579 125.734 114.005V114.009V121.871C125.734 122.297 126.079 122.642 126.505 122.642V122.642Z" fill="#2496ED"/>
<path d="M101.953 111.331H110.78C111.206 111.328 111.551 110.982 111.551 110.556V102.693C111.551 102.267 111.205 101.922 110.78 101.922H101.953C101.526 101.922 101.18 102.267 101.178 102.693V110.556C101.18 110.983 101.526 111.328 101.953 111.331Z" fill="#2496ED"/>
<path d="M114.302 111.331H123.129C123.555 111.328 123.9 110.982 123.9 110.556V102.693C123.9 102.267 123.555 101.922 123.129 101.922H114.302C113.876 101.922 113.531 102.267 113.531 102.693V110.556C113.531 110.982 113.876 111.328 114.302 111.331Z" fill="#2496ED"/>
<path d="M126.505 111.331H135.332C135.759 111.328 136.105 110.983 136.107 110.556V102.693C136.105 102.267 135.759 101.922 135.332 101.922H126.505C126.079 101.922 125.734 102.267 125.734 102.693V110.556C125.734 110.982 126.079 111.328 126.505 111.331Z" fill="#2496ED"/>
<path d="M126.505 100.015H135.332C135.759 100.015 136.105 99.6704 136.107 99.2442V91.3771C136.105 90.9507 135.759 90.6064 135.332 90.6064H126.505C126.079 90.6064 125.734 90.9514 125.734 91.3771V99.244C125.734 99.6697 126.079 100.015 126.505 100.015Z" fill="#2496ED"/>
<path d="M138.816 122.642H147.643C148.069 122.642 148.415 122.298 148.418 121.872V114.009C148.418 113.581 148.071 113.234 147.643 113.234H138.816C138.39 113.234 138.045 113.579 138.045 114.005V114.009V121.871C138.045 122.297 138.39 122.642 138.816 122.642" fill="#2496ED"/>
<defs>
<filter id="filter0_d_30_988" x="0.724609" y="0.891113" width="260" height="260" filterUnits="userSpaceOnUse" color-interpolation-filters="sRGB">
<feFlood flood-opacity="0" result="BackgroundImageFix"/>
<feColorMatrix in="SourceAlpha" type="matrix" values="0 0 0 0 0 0 0 0 0 0 0 0 0 0 0 0 0 0 127 0" result="hardAlpha"/>
<feOffset dy="4"/>
<feGaussianBlur stdDeviation="20"/>
<feComposite in2="hardAlpha" operator="out"/>
<feColorMatrix type="matrix" values="0 0 0 0 0.0367917 0 0 0 0 0.0348958 0 0 0 0 0.0484375 0 0 0 0.1 0"/>
<feBlend mode="normal" in2="BackgroundImageFix" result="effect1_dropShadow_30_988"/>
<feBlend mode="normal" in="SourceGraphic" in2="effect1_dropShadow_30_988" result="shape"/>
</filter>
</defs>
</svg>
