<svg width="180" height="180" viewBox="0 0 180 180" fill="none" xmlns="http://www.w3.org/2000/svg">
<path d="M73.3337 140C82.5337 140 90.0003 132.534 90.0003 123.334V106.667H73.3337C64.1337 106.667 56.667 114.134 56.667 123.334C56.667 132.534 64.1337 140 73.3337 140Z" fill="#0ACF83"/>
<path d="M56.667 89.9996C56.667 80.7997 64.1337 73.333 73.3337 73.333H90.0003V106.666H73.3337C64.1337 106.666 56.667 99.1996 56.667 89.9996Z" fill="#A259FF"/>
<path d="M56.667 56.6667C56.667 47.4667 64.1337 40 73.3337 40H90.0003V73.3333H73.3337C64.1337 73.3333 56.667 65.8667 56.667 56.6667Z" fill="#F24E1E"/>
<path d="M90 40H106.667C115.867 40 123.333 47.4667 123.333 56.6667C123.333 65.8667 115.867 73.3333 106.667 73.3333H90V40Z" fill="#FF7262"/>
<path d="M123.333 89.9996C123.333 99.1996 115.867 106.666 106.667 106.666C97.4667 106.666 90 99.1996 90 89.9996C90 80.7997 97.4667 73.333 106.667 73.333C115.867 73.333 123.333 80.7997 123.333 89.9996Z" fill="#1ABCFE"/>
</svg>
