<svg width="180" height="180" viewBox="0 0 180 180" fill="none" xmlns="http://www.w3.org/2000/svg">
<path d="M76.8768 117.336C76.8768 117.336 73.0555 119.558 79.5964 120.31C87.5207 121.214 91.5704 121.084 100.303 119.432C100.303 119.432 102.599 120.871 105.805 122.118C86.2294 130.508 61.5007 121.632 76.8768 117.336ZM74.4846 106.387C74.4846 106.387 70.1986 109.56 76.7445 110.237C85.2093 111.11 91.8941 111.182 103.462 108.954C103.462 108.954 105.062 110.576 107.577 111.464C83.9087 118.385 57.5462 112.009 74.4846 106.387Z" fill="white"/>
<path d="M94.6508 87.8154C99.4744 93.3687 93.3835 98.3661 93.3835 98.3661C93.3835 98.3661 105.631 92.0435 100.006 84.1259C94.753 76.7427 90.7241 73.0737 112.534 60.425C112.534 60.425 78.2999 68.975 94.6508 87.8151" fill="#E76F00"/>
<path d="M120.542 125.434C120.542 125.434 123.369 127.764 117.427 129.567C106.128 132.99 70.3972 134.023 60.4713 129.703C56.9034 128.151 63.5946 125.997 65.6992 125.545C67.8942 125.069 69.1487 125.158 69.1487 125.158C65.1806 122.362 43.5008 130.646 58.1365 133.018C98.0498 139.491 130.894 130.104 120.542 125.434ZM78.7141 95.0437C78.7141 95.0437 60.5397 99.3607 72.2783 100.928C77.2346 101.592 87.115 101.442 96.3184 100.67C103.84 100.036 111.393 98.687 111.393 98.687C111.393 98.687 108.74 99.8228 106.822 101.133C88.3655 105.987 52.7115 103.729 62.9758 98.7637C71.6564 94.5677 78.7144 95.0437 78.7144 95.0437H78.7141ZM111.318 113.268C130.079 103.518 121.405 94.1496 115.35 95.412C113.866 95.7207 113.204 95.9882 113.204 95.9882C113.204 95.9882 113.755 95.1254 114.807 94.7519C126.785 90.5406 135.998 107.172 110.941 113.759C110.941 113.759 111.231 113.5 111.318 113.268" fill="white"/>
<path d="M100.007 40.0003C100.007 40.0003 110.397 50.3946 90.1516 66.3772C73.9171 79.1985 86.4496 86.5086 90.145 94.8609C80.6685 86.3109 73.7138 78.7841 78.3797 71.7791C85.2275 61.4957 104.199 56.5102 100.007 40" fill="#E76F00"/>
<path d="M80.5577 139.685C98.5665 140.838 126.221 139.046 126.876 130.525C126.876 130.525 125.617 133.755 111.993 136.321C96.6217 139.213 77.664 138.875 66.4199 137.021C66.4202 137.021 68.7217 138.927 80.558 139.685" fill="white"/>
</svg>
