<svg width="261" height="261" viewBox="0 0 261 261" fill="none" xmlns="http://www.w3.org/2000/svg">
<g filter="url(#filter0_d_30_945)">
<rect x="40.3135" y="36.8911" width="180" height="180" rx="90" fill="white"/>
<rect x="40.8135" y="37.3911" width="179" height="179" rx="89.5" stroke="white"/>
</g>
<path d="M117.467 153.821C117.467 153.821 113.645 156.043 120.186 156.795C128.111 157.699 132.16 157.57 140.893 155.917C140.893 155.917 143.189 157.356 146.395 158.603C126.819 166.993 102.091 158.117 117.467 153.821V153.821ZM115.074 142.873C115.074 142.873 110.788 146.045 117.334 146.722C125.799 147.595 132.484 147.667 144.052 145.44C144.052 145.44 145.651 147.062 148.167 147.949C124.499 154.87 98.1361 148.494 115.074 142.873" fill="#5382A1"/>
<path d="M135.241 124.301C140.064 129.854 133.973 134.851 133.973 134.851C133.973 134.851 146.221 128.529 140.596 120.611C135.343 113.228 131.314 109.559 153.124 96.9104C153.124 96.9104 118.89 105.46 135.241 124.3" fill="#E76F00"/>
<path d="M161.131 161.919C161.131 161.919 163.959 164.249 158.017 166.052C146.717 169.475 110.987 170.509 101.061 166.188C97.4932 164.636 104.184 162.482 106.289 162.03C108.484 161.554 109.739 161.643 109.739 161.643C105.77 158.847 84.0906 167.132 98.7264 169.504C138.64 175.977 171.484 166.589 161.131 161.919ZM119.304 131.529C119.304 131.529 101.13 135.846 112.868 137.413C117.824 138.077 127.705 137.927 136.908 137.156C144.43 136.522 151.982 135.172 151.982 135.172C151.982 135.172 149.33 136.308 147.411 137.618C128.955 142.472 93.3013 140.214 103.566 135.249C112.246 131.053 119.304 131.529 119.304 131.529H119.304ZM151.907 149.753C170.669 140.004 161.994 130.635 155.94 131.897C154.456 132.206 153.794 132.474 153.794 132.474C153.794 132.474 154.345 131.611 155.397 131.237C167.375 127.026 176.587 143.657 151.53 150.244C151.53 150.245 151.821 149.985 151.907 149.753" fill="#5382A1"/>
<path d="M140.596 76.4856C140.596 76.4856 150.987 86.88 130.741 102.863C114.507 115.684 127.039 122.994 130.735 131.346C121.258 122.796 114.304 115.269 118.97 108.264C125.817 97.981 144.789 92.9955 140.596 76.4854" fill="#E76F00"/>
<path d="M121.148 176.171C139.156 177.324 166.811 175.532 167.466 167.01C167.466 167.01 166.207 170.241 152.582 172.806C137.212 175.699 118.254 175.361 107.01 173.507C107.01 173.507 109.312 175.412 121.148 176.171" fill="#5382A1"/>
<defs>
<filter id="filter0_d_30_945" x="0.313477" y="0.891113" width="260" height="260" filterUnits="userSpaceOnUse" color-interpolation-filters="sRGB">
<feFlood flood-opacity="0" result="BackgroundImageFix"/>
<feColorMatrix in="SourceAlpha" type="matrix" values="0 0 0 0 0 0 0 0 0 0 0 0 0 0 0 0 0 0 127 0" result="hardAlpha"/>
<feOffset dy="4"/>
<feGaussianBlur stdDeviation="20"/>
<feComposite in2="hardAlpha" operator="out"/>
<feColorMatrix type="matrix" values="0 0 0 0 0.0367917 0 0 0 0 0.0348958 0 0 0 0 0.0484375 0 0 0 0.1 0"/>
<feBlend mode="normal" in2="BackgroundImageFix" result="effect1_dropShadow_30_945"/>
<feBlend mode="normal" in="SourceGraphic" in2="effect1_dropShadow_30_945" result="shape"/>
</filter>
</defs>
</svg>
