<svg width="180" height="180" viewBox="0 0 180 180" fill="none" xmlns="http://www.w3.org/2000/svg">
<path d="M89.6875 40.2729L92.356 45.2851C92.956 46.21 93.606 47.0287 94.3715 47.7911C96.616 50.0076 98.7081 52.3732 100.634 54.8719C105.155 60.8089 108.205 67.4022 110.383 74.5329C111.689 78.8888 112.398 83.3572 112.451 87.8756C112.67 101.384 108.039 112.983 98.7025 122.623C97.1837 124.152 95.543 125.554 93.7966 126.816C92.8716 126.816 92.4342 126.107 92.0529 125.454C91.3587 124.243 90.8967 122.913 90.6905 121.533C90.3624 119.898 90.1468 118.264 90.2531 116.577V115.814C90.1781 115.652 89.3625 40.6573 89.6875 40.2729V40.2729Z" fill="#599636"/>
<path d="M89.6875 40.1075C89.5781 39.8888 89.4688 40.0544 89.3594 40.1606C89.4125 41.2543 89.0313 42.2292 88.4345 43.1604C87.7783 44.0853 86.9096 44.7947 86.0378 45.5571C81.1944 49.7505 77.3821 54.8158 74.3292 60.481C70.267 68.1054 68.1734 76.2767 67.5797 84.8792C67.3079 87.9821 68.5609 98.9313 69.539 102.09C72.2075 110.477 77.0009 117.505 83.2098 123.604C84.7347 125.073 86.3659 126.436 88.0532 127.745C88.5438 127.745 88.597 127.307 88.7094 126.982C88.9245 126.287 89.0885 125.577 89.2 124.857L90.2937 116.689L89.6875 40.1075Z" fill="#6CAC48"/>
<path d="M92.3556 130.135C92.4649 128.885 93.0649 127.848 93.718 126.813C93.0618 126.541 92.5743 126.001 92.1931 125.398C91.8643 124.827 91.5922 124.225 91.3806 123.601C90.6182 121.314 90.4557 118.914 90.237 116.577V115.161C89.9651 115.38 89.9089 117.23 89.9089 117.505C89.7498 119.975 89.422 122.432 88.9277 124.857C88.7652 125.838 88.6558 126.816 88.0527 127.688C88.0527 127.798 88.0527 127.907 88.1059 128.069C89.087 130.957 89.3558 133.897 89.5214 136.894V137.987C89.5214 139.294 89.4683 139.019 90.5526 139.456C90.99 139.619 91.4775 139.675 91.915 140C92.2431 140 92.2962 139.728 92.2962 139.509L92.1337 137.712V132.7C92.0806 131.825 92.2431 130.957 92.3524 130.138L92.3556 130.135Z" fill="#C2BFBF"/>
</svg>
