<svg width="261" height="261" viewBox="0 0 261 261" fill="none" xmlns="http://www.w3.org/2000/svg">
<g filter="url(#filter0_d_30_981)">
<rect x="40.9336" y="36.2969" width="180" height="180" rx="90" fill="white"/>
<rect x="41.4336" y="36.7969" width="179" height="179" rx="89.5" stroke="white"/>
</g>
<path d="M178.593 135.793C178.011 134.028 176.488 132.798 174.519 132.503C173.59 132.364 172.527 132.423 171.268 132.683C169.074 133.137 167.447 133.31 166.259 133.343C170.742 125.753 174.388 117.097 176.486 108.95C179.88 95.7748 178.067 89.7729 175.947 87.0581C170.339 79.8723 162.157 76.0121 152.286 75.894C147.02 75.8294 142.398 76.872 139.986 77.6217C137.741 77.2244 135.327 77.0026 132.794 76.9616C128.046 76.8856 123.85 77.9236 120.265 80.0569C118.281 79.3839 115.095 78.4352 111.417 77.8298C102.766 76.4056 95.7927 77.5153 90.6925 81.1283C84.5166 85.5028 81.6536 93.1033 82.1831 103.719C82.3513 107.089 84.2314 117.344 87.1917 127.069C88.893 132.658 90.7073 137.3 92.584 140.867C95.2454 145.924 98.0932 148.902 101.29 149.971C103.082 150.57 106.338 150.989 109.762 148.129C110.196 148.656 110.775 149.18 111.544 149.667C112.52 150.284 113.713 150.788 114.905 151.087C119.201 152.164 123.224 151.894 126.657 150.385C126.678 150.997 126.694 151.582 126.708 152.087C126.731 152.907 126.753 153.71 126.783 154.461C126.987 159.54 127.331 163.49 128.352 166.253C128.408 166.405 128.484 166.637 128.563 166.883C129.073 168.447 129.924 171.065 132.092 173.116C134.336 175.24 137.05 175.891 139.536 175.891C140.783 175.891 141.973 175.727 143.016 175.503C146.736 174.703 150.96 173.486 154.016 169.123C156.905 164.998 158.309 158.786 158.563 148.997C158.596 148.72 158.627 148.456 158.656 148.204L158.716 147.687L159.397 147.747L159.572 147.759C163.361 147.932 167.993 147.126 170.837 145.801C173.085 144.755 180.289 140.942 178.593 135.793" fill="black"/>
<path d="M172.115 136.794C160.851 139.124 160.077 135.3 160.077 135.3C171.969 117.604 176.941 95.142 172.651 89.6444C160.946 74.6481 140.685 81.7405 140.347 81.9243L140.238 81.944C138.013 81.4807 135.522 81.205 132.723 81.159C127.626 81.0755 123.76 82.4989 120.826 84.7299C120.826 84.7299 84.6823 69.7985 86.3635 103.509C86.7211 110.68 96.614 157.771 108.414 143.548C112.726 138.346 116.894 133.949 116.894 133.949C118.963 135.327 121.441 136.031 124.039 135.778L124.24 135.606C124.178 136.252 124.206 136.884 124.321 137.631C121.281 141.037 122.175 141.635 116.098 142.889C109.949 144.16 113.561 146.422 115.92 147.014C118.779 147.731 125.393 148.746 129.863 142.472L129.685 143.188C130.875 144.145 131.712 149.411 131.572 154.184C131.431 158.957 131.338 162.235 132.276 164.795C133.215 167.354 134.15 173.114 142.139 171.398C148.813 169.963 152.272 166.246 152.754 160.046C153.095 155.638 153.868 156.289 153.917 152.348L154.537 150.483C155.251 144.507 154.65 142.579 158.762 143.476L159.762 143.564C162.788 143.702 166.75 143.076 169.075 141.992C174.082 139.663 177.051 135.772 172.114 136.794H172.115" fill="#336791"/>
<path d="M122.942 106.716C121.927 106.574 121.008 106.705 120.543 107.058C120.281 107.257 120.2 107.487 120.178 107.646C120.12 108.065 120.413 108.529 120.594 108.769C121.103 109.446 121.848 109.912 122.585 110.014C122.692 110.03 122.798 110.036 122.904 110.036C124.133 110.036 125.251 109.077 125.349 108.368C125.472 107.481 124.188 106.89 122.942 106.716V106.716ZM156.569 106.744C156.472 106.049 155.238 105.85 154.067 106.014C152.898 106.177 151.764 106.706 151.858 107.403C151.934 107.945 152.91 108.87 154.065 108.87C154.163 108.87 154.261 108.864 154.361 108.85C155.132 108.743 155.698 108.252 155.967 107.969C156.376 107.537 156.613 107.056 156.569 106.744" fill="white"/>
<path d="M175.863 136.53C175.434 135.228 174.051 134.809 171.755 135.284C164.935 136.696 162.493 135.718 161.691 135.126C166.992 127.029 171.352 117.24 173.705 108.108C174.819 103.782 175.435 99.7647 175.485 96.4901C175.541 92.8961 174.93 90.255 173.671 88.6416C168.595 82.1375 161.145 78.6487 152.127 78.553C145.927 78.4831 140.689 80.0741 139.674 80.5215C137.535 79.9883 135.204 79.6609 132.666 79.6191C128.012 79.5435 123.989 80.6609 120.658 82.9385C119.211 82.3985 115.472 81.1113 110.9 80.3726C102.994 79.0965 96.7124 80.0635 92.2295 83.2481C86.8804 87.0483 84.4109 93.8414 84.8893 103.438C85.0503 106.667 86.8849 116.599 89.7801 126.111C93.5911 138.631 97.7339 145.718 102.093 147.176C102.603 147.347 103.191 147.466 103.84 147.466C105.43 147.466 107.379 146.748 109.407 144.302C111.881 141.327 114.44 138.423 117.081 135.595C118.795 136.517 120.677 137.032 122.602 137.084C122.606 137.135 122.611 137.185 122.616 137.235C122.284 137.631 121.96 138.033 121.642 138.441C120.308 140.139 120.031 140.493 115.737 141.379C114.515 141.632 111.271 142.302 111.223 144.583C111.172 147.074 115.058 148.121 115.501 148.231C117.044 148.619 118.531 148.81 119.948 148.81C123.396 148.81 126.43 147.674 128.855 145.475C128.78 154.357 129.15 163.109 130.213 165.775C131.084 167.959 133.212 173.294 139.933 173.293C140.92 173.293 142.005 173.178 143.199 172.921C150.214 171.414 153.261 168.305 154.439 161.45C155.069 157.787 156.152 149.04 156.661 144.348C157.735 144.684 159.118 144.838 160.613 144.838C163.73 144.838 167.328 144.173 169.584 143.123C172.119 141.943 176.693 139.046 175.863 136.53V136.53ZM159.158 104.824C159.135 106.21 158.945 107.467 158.743 108.78C158.526 110.191 158.302 111.651 158.246 113.423C158.19 115.147 158.405 116.94 158.612 118.673C159.032 122.175 159.463 125.78 157.796 129.337C157.519 128.845 157.272 128.337 157.057 127.815C156.85 127.311 156.4 126.502 155.777 125.382C153.353 121.024 147.678 110.817 150.583 106.652C151.449 105.413 153.645 104.138 159.158 104.824V104.824ZM152.475 81.3578C160.556 81.5367 166.947 84.5679 171.473 90.3666C174.944 94.8144 171.122 115.053 160.057 132.512C159.946 132.371 159.834 132.229 159.722 132.088L159.582 131.913C162.441 127.178 161.882 122.493 161.384 118.34C161.179 116.635 160.986 115.025 161.036 113.513C161.086 111.91 161.298 110.535 161.502 109.206C161.753 107.568 162.009 105.873 161.939 103.875C161.991 103.665 162.012 103.417 161.985 103.123C161.805 101.207 159.623 95.4726 155.177 90.2823C152.744 87.4433 149.197 84.2663 144.354 82.1235C146.437 81.6905 149.286 81.2868 152.475 81.3578V81.3578ZM107.261 142.513C105.026 145.207 103.483 144.691 102.976 144.521C99.6693 143.415 95.8325 136.407 92.4499 125.294C89.5229 115.679 87.8125 106.009 87.6769 103.298C87.2497 94.7229 89.3226 88.7468 93.8384 85.5352C101.188 80.3092 113.271 83.4372 118.126 85.0236C118.056 85.0928 117.983 85.1573 117.914 85.2276C109.947 93.296 110.136 107.081 110.156 107.924C110.155 108.249 110.182 108.709 110.219 109.342C110.356 111.661 110.612 115.976 109.93 120.863C109.297 125.405 110.693 129.849 113.76 133.058C114.074 133.387 114.405 133.7 114.751 133.996C113.386 135.462 110.419 138.704 107.261 142.513V142.513ZM115.775 131.122C113.303 128.535 112.181 124.938 112.695 121.251C113.414 116.088 113.149 111.592 113.006 109.177C112.986 108.839 112.968 108.543 112.958 108.309C114.122 107.274 119.515 104.376 123.362 105.26C125.117 105.663 126.187 106.862 126.631 108.923C128.933 119.597 126.936 124.045 125.332 127.62C125.001 128.357 124.688 129.053 124.422 129.773L124.215 130.33C123.692 131.737 123.204 133.046 122.903 134.289C120.275 134.281 117.719 133.155 115.775 131.121V131.122ZM116.178 145.516C115.411 145.324 114.721 144.99 114.316 144.713C114.654 144.554 115.256 144.336 116.3 144.121C121.351 143.078 122.131 142.342 123.835 140.173C124.226 139.675 124.668 139.112 125.282 138.425L125.282 138.424C126.195 137.399 126.613 137.573 127.371 137.888C127.985 138.143 128.583 138.914 128.825 139.764C128.94 140.165 129.069 140.926 128.647 141.518C125.088 146.515 119.903 146.451 116.178 145.516V145.516ZM142.615 170.185C136.435 171.512 134.247 168.351 132.805 164.736C131.874 162.403 131.417 151.88 131.742 140.259C131.746 140.105 131.724 139.955 131.681 139.815C131.643 139.537 131.586 139.263 131.509 138.994C131.026 137.303 129.85 135.888 128.439 135.302C127.879 135.069 126.85 134.642 125.614 134.959C125.877 133.87 126.334 132.64 126.83 131.308L127.038 130.747C127.272 130.116 127.566 129.462 127.877 128.769C129.556 125.029 131.855 119.905 129.36 108.332C128.425 103.997 125.303 101.88 120.571 102.372C117.734 102.666 115.139 103.814 113.844 104.472C113.566 104.613 113.311 104.75 113.073 104.883C113.435 100.515 114.8 92.3526 119.906 87.1881C123.121 83.937 127.403 82.3312 132.62 82.4178C142.899 82.5865 149.491 87.8763 153.211 92.2846C156.417 96.083 158.153 99.9094 158.845 101.973C153.636 101.442 150.092 102.473 148.296 105.048C144.389 110.649 150.434 121.521 153.339 126.746C153.872 127.703 154.332 128.531 154.477 128.882C155.423 131.182 156.648 132.717 157.542 133.837C157.816 134.18 158.082 134.514 158.284 134.804C156.706 135.261 153.872 136.315 154.131 141.583C153.922 144.226 152.441 156.602 151.688 160.975C150.695 166.752 148.575 168.903 142.615 170.185V170.185ZM168.409 140.585C166.796 141.336 164.096 141.899 161.531 142.02C158.698 142.153 157.255 141.702 156.916 141.424C156.757 138.141 157.975 137.798 159.265 137.435C159.468 137.378 159.665 137.322 159.856 137.255C159.975 137.352 160.105 137.448 160.247 137.542C162.524 139.049 166.585 139.212 172.319 138.025L172.382 138.013C171.609 138.738 170.285 139.711 168.409 140.585Z" fill="white"/>
<defs>
<filter id="filter0_d_30_981" x="0.933594" y="0.296875" width="260" height="260" filterUnits="userSpaceOnUse" color-interpolation-filters="sRGB">
<feFlood flood-opacity="0" result="BackgroundImageFix"/>
<feColorMatrix in="SourceAlpha" type="matrix" values="0 0 0 0 0 0 0 0 0 0 0 0 0 0 0 0 0 0 127 0" result="hardAlpha"/>
<feOffset dy="4"/>
<feGaussianBlur stdDeviation="20"/>
<feComposite in2="hardAlpha" operator="out"/>
<feColorMatrix type="matrix" values="0 0 0 0 0.0367917 0 0 0 0 0.0348958 0 0 0 0 0.0484375 0 0 0 0.1 0"/>
<feBlend mode="normal" in2="BackgroundImageFix" result="effect1_dropShadow_30_981"/>
<feBlend mode="normal" in="SourceGraphic" in2="effect1_dropShadow_30_981" result="shape"/>
</filter>
</defs>
</svg>
