<svg width="180" height="180" viewBox="0 0 180 180" fill="none" xmlns="http://www.w3.org/2000/svg">
<path d="M89.9998 98.8163C94.8689 98.8163 98.8161 94.8691 98.8161 90.0001C98.8161 85.131 94.8689 81.1838 89.9998 81.1838C85.1308 81.1838 81.1836 85.131 81.1836 90.0001C81.1836 94.8691 85.1308 98.8163 89.9998 98.8163Z" fill="#61DAFB"/>
<path d="M90 108.063C116.127 108.063 137.307 99.9757 137.307 90C137.307 80.0244 116.127 71.9375 90 71.9375C63.8733 71.9375 42.6934 80.0244 42.6934 90C42.6934 99.9757 63.8733 108.063 90 108.063Z" stroke="#61DAFB" stroke-width="5"/>
<path d="M74.3574 99.0313C87.4207 121.658 105.014 135.957 113.653 130.969C122.292 125.981 118.706 103.595 105.643 80.9687C92.5792 58.3423 74.9858 44.0434 66.3467 49.0313C57.7075 54.0191 61.294 76.4049 74.3574 99.0313Z" stroke="#61DAFB" stroke-width="5"/>
<path d="M74.3574 80.9687C61.294 103.595 57.7075 125.981 66.3467 130.969C74.9858 135.957 92.5792 121.658 105.643 99.0312C118.706 76.4048 122.292 54.0191 113.653 49.0312C105.014 44.0434 87.4207 58.3423 74.3574 80.9687Z" stroke="#61DAFB" stroke-width="5"/>
</svg>
