<svg width="180" height="180" viewBox="0 0 180 180" fill="none" xmlns="http://www.w3.org/2000/svg">
<path fill-rule="evenodd" clip-rule="evenodd" d="M60.5331 77.0962L90.278 134.987L40.2822 77.0962H60.5331Z" fill="#EA6C00"/>
<path fill-rule="evenodd" clip-rule="evenodd" d="M120.031 77.0962L90.2865 134.987L140.282 77.0962H120.031Z" fill="#EA6C00"/>
<path fill-rule="evenodd" clip-rule="evenodd" d="M60.5322 77.0962H120.022L90.2771 134.987L60.5322 77.0962Z" fill="#FDAD00"/>
<path fill-rule="evenodd" clip-rule="evenodd" d="M90.2771 45.0132L62.0978 47.9751L60.5322 77.0962L90.2771 45.0132Z" fill="#FDD231"/>
<path fill-rule="evenodd" clip-rule="evenodd" d="M90.2766 45.0132L118.456 47.9751L120.021 77.0962L90.2766 45.0132Z" fill="#FDD231"/>
<path fill-rule="evenodd" clip-rule="evenodd" d="M140.282 77.0962L118.466 47.9751L120.031 77.0962H140.282Z" fill="#FDAD00"/>
<path fill-rule="evenodd" clip-rule="evenodd" d="M40.2822 77.0962L62.0987 47.9751L60.5331 77.0962H40.2822Z" fill="#FDAD00"/>
<path fill-rule="evenodd" clip-rule="evenodd" d="M90.2771 45.0132L60.5322 77.0962H120.022L90.2771 45.0132Z" fill="#FEEEB7"/>
</svg>
