<svg width="261" height="261" viewBox="0 0 261 261" fill="none" xmlns="http://www.w3.org/2000/svg">
<g filter="url(#filter0_d_30_912)">
<rect x="40.7236" y="36.2969" width="180" height="180" rx="90" fill="white"/>
<rect x="41.2236" y="36.7969" width="179" height="179" rx="89.5" stroke="white"/>
</g>
<path d="M179.762 90.6922L133.645 174.586C132.693 176.318 130.247 176.328 129.28 174.605L82.2495 90.7C81.1964 88.8219 82.7753 86.5466 84.8676 86.9274L131.034 95.3219C131.328 95.3755 131.63 95.3749 131.924 95.3204L177.125 86.9391C179.21 86.5525 180.796 88.8102 179.762 90.6922V90.6922Z" fill="url(#paint0_linear_30_912)"/>
<path d="M153.025 75.9157L118.898 82.7189C118.625 82.7733 118.378 82.9183 118.195 83.1311C118.012 83.344 117.904 83.6126 117.888 83.8948L115.788 119.965C115.777 120.163 115.811 120.361 115.887 120.543C115.964 120.725 116.082 120.887 116.23 121.014C116.379 121.142 116.555 121.233 116.745 121.28C116.934 121.326 117.131 121.328 117.321 121.283L126.823 119.052C127.712 118.843 128.515 119.64 128.332 120.55L125.509 134.613C125.32 135.559 126.193 136.368 127.101 136.087L132.97 134.274C133.88 133.993 134.754 134.804 134.562 135.752L130.076 157.841C129.795 159.223 131.601 159.977 132.355 158.792L132.858 158.001L160.667 101.541C161.133 100.595 160.33 99.5174 159.31 99.7179L149.529 101.638C148.61 101.818 147.828 100.948 148.087 100.033L154.471 77.5204C154.73 76.6035 153.945 75.7324 153.025 75.9157H153.025Z" fill="url(#paint1_linear_30_912)"/>
<defs>
<filter id="filter0_d_30_912" x="0.723633" y="0.296875" width="260" height="260" filterUnits="userSpaceOnUse" color-interpolation-filters="sRGB">
<feFlood flood-opacity="0" result="BackgroundImageFix"/>
<feColorMatrix in="SourceAlpha" type="matrix" values="0 0 0 0 0 0 0 0 0 0 0 0 0 0 0 0 0 0 127 0" result="hardAlpha"/>
<feOffset dy="4"/>
<feGaussianBlur stdDeviation="20"/>
<feComposite in2="hardAlpha" operator="out"/>
<feColorMatrix type="matrix" values="0 0 0 0 0.0367917 0 0 0 0 0.0348958 0 0 0 0 0.0484375 0 0 0 0.1 0"/>
<feBlend mode="normal" in2="BackgroundImageFix" result="effect1_dropShadow_30_912"/>
<feBlend mode="normal" in="SourceGraphic" in2="effect1_dropShadow_30_912" result="shape"/>
</filter>
<linearGradient id="paint0_linear_30_912" x1="81.1012" y1="93.696" x2="131.952" y2="161.579" gradientUnits="userSpaceOnUse">
<stop stop-color="#41D1FF"/>
<stop offset="1" stop-color="#BD34FE"/>
</linearGradient>
<linearGradient id="paint1_linear_30_912" x1="135.313" y1="77.7629" x2="145.894" y2="149.115" gradientUnits="userSpaceOnUse">
<stop stop-color="#FFEA83"/>
<stop offset="0.083" stop-color="#FFDD35"/>
<stop offset="1" stop-color="#FFA800"/>
</linearGradient>
</defs>
</svg>
